<?xml version="1.0" encoding="UTF-8" standalone="no"?>
<!-- Created with Inkscape (http://www.inkscape.org/) -->

<svg
   xmlns:dc="http://purl.org/dc/elements/1.1/"
   xmlns:cc="http://creativecommons.org/ns#"
   xmlns:rdf="http://www.w3.org/1999/02/22-rdf-syntax-ns#"
   xmlns:svg="http://www.w3.org/2000/svg"
   xmlns="http://www.w3.org/2000/svg"
   xmlns:sodipodi="http://sodipodi.sourceforge.net/DTD/sodipodi-0.dtd"
   xmlns:inkscape="http://www.inkscape.org/namespaces/inkscape"
   version="1.1"
   id="svg6281"
   width="512"
   height="512"
   viewBox="0 0 512 512"
   sodipodi:docname="U+50AC.svg"
   inkscape:version="0.92.4 (5da689c313, 2019-01-14)">
  <metadata
     id="metadata6287">
    <rdf:RDF>
      <cc:Work
         rdf:about="">
        <dc:format>image/svg+xml</dc:format>
        <dc:type
           rdf:resource="http://purl.org/dc/dcmitype/StillImage" />
        <dc:title></dc:title>
      </cc:Work>
    </rdf:RDF>
  </metadata>
  <defs
     id="defs6285" />
  <sodipodi:namedview
     pagecolor="#ffffff"
     bordercolor="#666666"
     borderopacity="1"
     objecttolerance="10"
     gridtolerance="10"
     guidetolerance="10"
     inkscape:pageopacity="0"
     inkscape:pageshadow="2"
     inkscape:window-width="1366"
     inkscape:window-height="705"
     id="namedview6283"
     showgrid="false"
     inkscape:zoom="0.921875"
     inkscape:cx="180.33085"
     inkscape:cy="243.33043"
     inkscape:window-x="-8"
     inkscape:window-y="-8"
     inkscape:window-maximized="1"
     inkscape:current-layer="svg6281" />
  <path
     style="fill:#000000;stroke:none;stroke-width:1px;stroke-linecap:butt;stroke-linejoin:miter;stroke-opacity:1;fill-opacity:1"
     d="m 143.18644,85.694915 c 0,0 6.95585,24.401345 3.25424,35.796615 C 112.45992,171.58566 40.135593,242.98305 40.135593,242.98305 l -30.3728811,17.35593 20.6101691,1.08475 c 0,0 22.101398,-5.11201 29.288136,-13.01695 17.151777,-18.86584 71.593223,-88.94915 71.593223,-88.94915 0,0 8.92244,-6.07007 23.75244,-14.13323 7.80959,-4.24611 21.17708,-7.47709 27.23061,-14.07016 13.52765,-14.73335 -39.05085,-45.559325 -39.05085,-45.559325 z"
     id="path6834"
     inkscape:connector-curvature="0"
     sodipodi:nodetypes="cccccscssc" />
  <path
     style="fill:#000000;stroke:none;stroke-width:1px;stroke-linecap:butt;stroke-linejoin:miter;stroke-opacity:1;fill-opacity:1"
     d="m 124.74576,176.81356 c 0,0 10.74847,27.7011 11.93221,42.30508 -5.88182,57.64168 -6.12808,93.04652 -16.27119,143.18644 -2.73181,8.63961 -11.9322,19.52543 -11.9322,19.52543 0,0 3.38138,36.07413 20.61016,41.22034 13.28098,-16.30781 5.42373,-62.91526 5.42373,-62.91526 0.4472,0.8944 4.83479,-66.96377 7.59322,-120.40678 1.69003,-6.57993 8.98271,-11.654 8.67797,-18.44067 -0.77058,-17.1607 -26.0339,-44.47458 -26.0339,-44.47458 z"
     id="path6840"
     inkscape:connector-curvature="0"
     sodipodi:nodetypes="cccccccsc" />
  <path
     style="fill:#000000;stroke:none;stroke-width:1px;stroke-linecap:butt;stroke-linejoin:miter;stroke-opacity:1;fill-opacity:1"
     d="m 287.45763,43.38983 c 0,0 16.10485,54.701406 8.67796,90.0339 1.32901,4.3313 2.0071,11.41842 6.50848,11.9322 4.32593,0.49376 6.73713,-5.86519 8.67796,-9.76271 5.75293,-11.55286 2.85588,-20.53728 7.59322,-32.54237 3.27804,-8.307034 15.92918,-19.461961 14.1017,-28.203393 C 324.90144,56.783143 287.45763,43.38983 287.45763,43.38983 Z"
     id="path6842"
     inkscape:connector-curvature="0"
     sodipodi:nodetypes="ccssscc" />
  <path
     style="fill:#000000;stroke:none;stroke-width:1px;stroke-linecap:butt;stroke-linejoin:miter;stroke-opacity:1;fill-opacity:1"
     d="m 220.20339,116.0678 c 0,0 8.1104,20.15451 7.59322,27.11864 -0.86358,11.62864 -14.30293,13.73499 -17.35593,22.77966 -1.38769,4.11109 -2.00379,9.16836 0,13.01695 2.03828,3.91483 6.47606,6.98383 10.84746,7.59322 23.00333,-6.8846 53.3073,-22.11435 81.35593,-28.20339 30.16761,-6.54905 58.86149,-5.02517 103.05085,-8.67796 11.92866,-0.98605 -6.50848,-10.84746 -6.50848,-10.84746 0,0 -23.53094,-7.01319 -30.37288,-6.50848 -40.91751,3.01839 -120.40678,24.94916 -120.40678,24.94916 0,0 5.06677,-20.28449 0,-28.2034 -5.5804,-8.72165 -28.20339,-13.01694 -28.20339,-13.01694 z"
     id="path6844"
     inkscape:connector-curvature="0"
     sodipodi:nodetypes="cssscsscscac" />
  <path
     style="fill:#000000;stroke:none;stroke-width:1px;stroke-linecap:butt;stroke-linejoin:miter;stroke-opacity:1;fill-opacity:1"
     d="m 377.49153,95.457627 c 0,0 13.07329,28.624783 21.69491,52.067803 4.39618,6.97561 8.96888,11.05109 15.18644,10.84745 5.13629,-0.16822 10.50381,-4.82617 11.9322,-9.76271 -7.35152,-9.91254 -7.91778,-24.22404 -11.9322,-35.79661 -11.19326,-4.73395 -36.88135,-17.355933 -36.88135,-17.355933 z"
     id="path6850"
     inkscape:connector-curvature="0"
     sodipodi:nodetypes="ccsccc" />
  <path
     style="fill:#000000;stroke:none;stroke-width:1px;stroke-linecap:butt;stroke-linejoin:miter;stroke-opacity:1;fill-opacity:1"
     d="m 282.0339,164.88136 c 0,0 -2.82829,27.77744 -13.01695,37.96609 -65.09088,65.09089 -94.37288,98.71187 -94.37288,98.71187 0,0 18.29552,0.82022 26.0339,-3.25424 34.2219,-18.01873 48.26367,-60.91343 77.01695,-86.77966 9.24978,-8.32103 24.28902,-10.84205 30.37288,-21.69491 2.48163,-4.42692 1.08474,-15.18644 1.08474,-15.18644 z"
     id="path6856"
     inkscape:connector-curvature="0"
     sodipodi:nodetypes="cscssscc" />
  <path
     style="fill:#000000;stroke:none;stroke-width:1px;stroke-linecap:butt;stroke-linejoin:miter;stroke-opacity:1;fill-opacity:1"
     d="m 327.59322,184.40678 c 0,0 19.68319,18.09482 21.69492,30.37288 1.40559,8.57863 -14.10169,26.0339 -14.10169,26.0339 0,0 46.83315,-20.09869 43.38982,-36.88136 -3.65753,-17.82668 -50.98305,-19.52542 -50.98305,-19.52542 z"
     id="path6858"
     inkscape:connector-curvature="0"
     sodipodi:nodetypes="cscsc" />
  <path
     style="fill:#000000;stroke:none;stroke-width:1px;stroke-linecap:butt;stroke-linejoin:miter;stroke-opacity:1;fill-opacity:1"
     d="m 258.16949,216.94915 c 0,0 17.63135,21.77845 17.35593,34.71187 -0.42352,19.88824 0.70367,98.70004 -5.42372,147.52542 -1.70438,13.58115 -14.04728,27.54499 -8.67797,40.13559 2.16507,5.07693 8.6589,9.59381 14.10169,8.67797 5.0678,-0.85274 8.83676,-6.87726 9.76272,-11.9322 4.1751,-22.79233 1.40137,-78.90789 4.33898,-118.23729 1.68042,-22.49784 15.82985,-46.25103 7.59322,-67.25424 -6.27152,-15.99223 -39.05085,-33.62712 -39.05085,-33.62712 z"
     id="path6866"
     inkscape:connector-curvature="0"
     sodipodi:nodetypes="csssssssc" />
  <path
     style="fill:#000000;stroke:none;stroke-width:1px;stroke-linecap:butt;stroke-linejoin:miter;stroke-opacity:1;fill-opacity:1"
     d="m 284.20339,258.16949 c 0,0 61.72443,-12.68314 92.20339,-20.61017 13.50787,-3.51315 33.82484,0.002 40.13559,-11.9322 1.5118,-2.85898 -1.25987,-7.68883 -4.33898,-8.67797 -20.0292,-6.4342 -65.44633,18.80226 -103.05085,28.20339 -4.33898,1.08475 -22.77966,3.25424 -22.77966,3.25424 z"
     id="path6870"
     inkscape:connector-curvature="0"
     sodipodi:nodetypes="cassscc" />
  <path
     style="fill:#000000;stroke:none;stroke-width:1px;stroke-linecap:butt;stroke-linejoin:miter;stroke-opacity:1;fill-opacity:1"
     d="m 310.23729,292.88136 c -0.72131,5.79683 10.43089,6.3881 16.27118,6.50847 13.03426,0.26863 24.31092,-9.56038 36.88136,-13.01695 10.66637,-2.933 30.59314,4.38072 32.54237,-6.50847 0.97253,-5.43295 -8.58243,-8.70107 -14.10169,-8.67797 -12.79758,0.0536 -71.59322,21.69492 -71.59322,21.69492 z"
     id="path6872"
     inkscape:connector-curvature="0"
     sodipodi:nodetypes="ssssss" />
  <path
     style="fill:#000000;stroke:none;stroke-width:1px;stroke-linecap:butt;stroke-linejoin:miter;stroke-opacity:1;fill-opacity:1"
     d="m 288.54237,333.01695 c -5.0641,2.65335 -9.76271,14.10169 -9.76271,14.10169 0,0 14.93099,10.78102 22.77967,8.67797 34.57927,-9.26549 103.05084,-26.0339 103.05084,-26.0339 0,0 -9.41893,-7.82437 -15.18644,-8.67796 -17.61398,-2.6069 -35.01812,9.74493 -52.0678,11.9322 -16.13892,2.07043 -48.81356,0 -48.81356,0 z"
     id="path6878"
     inkscape:connector-curvature="0"
     sodipodi:nodetypes="scscsss" />
  <path
     style="fill:#000000;stroke:none;stroke-width:1px;stroke-linecap:butt;stroke-linejoin:miter;stroke-opacity:1;fill-opacity:1"
     d="m 335.18645,240.81356 8.67796,17.35593 c 0,0 -0.17056,27.53291 1.08474,41.22034 1.27041,13.8522 6.18896,34.9069 6.50848,48.81356 0.30084,13.0936 -4.33899,31.45763 -4.33899,31.45763 l 14.1017,8.67796 2.16949,-9.76271 c 0,0 -7.6043,-35.43384 -8.67797,-45.55932 -2.9827,-28.12901 7.13374,-43.1135 6.50848,-73.76271 -4.32323,-10.94969 -26.03389,-18.44068 -26.03389,-18.44068 z"
     id="path6882"
     inkscape:connector-curvature="0"
     sodipodi:nodetypes="ccsscccscc" />
  <path
     style="fill:#000000;stroke:none;stroke-width:1px;stroke-linecap:butt;stroke-linejoin:miter;stroke-opacity:1;fill-opacity:1"
     d="m 277.69492,389.42373 c 0,0 3.8078,7.14186 5.42372,10.84746 0,0 51.77587,-11.20126 78.1017,-11.93221 30.13877,-0.83682 78.72132,12.17298 90.0339,8.67797 5.18205,-1.60099 10.92873,-7.72004 9.76271,-13.01695 -1.14774,-5.21386 -8.90441,-6.37262 -14.1017,-7.59322 -32.40164,-7.6096 -66.51781,2.71179 -99.79661,3.25424 -17.71516,0.28876 -36.07791,-4.7294 -53.15254,0 -6.09559,1.68838 -16.27118,9.76271 -16.27118,9.76271 z"
     id="path6886"
     inkscape:connector-curvature="0"
     sodipodi:nodetypes="csssssssc" />
</svg>
