<?xml version="1.0" encoding="UTF-8" standalone="no"?>
<!-- Created with Inkscape (http://www.inkscape.org/) -->

<svg
   xmlns:dc="http://purl.org/dc/elements/1.1/"
   xmlns:cc="http://creativecommons.org/ns#"
   xmlns:rdf="http://www.w3.org/1999/02/22-rdf-syntax-ns#"
   xmlns:svg="http://www.w3.org/2000/svg"
   xmlns="http://www.w3.org/2000/svg"
   xmlns:sodipodi="http://sodipodi.sourceforge.net/DTD/sodipodi-0.dtd"
   xmlns:inkscape="http://www.inkscape.org/namespaces/inkscape"
   version="1.1"
   id="svg3713"
   width="512"
   height="512"
   viewBox="0 0 512 512"
   sodipodi:docname="妙1.svg"
   inkscape:version="0.92.4 (5da689c313, 2019-01-14)">
  <metadata
     id="metadata3719">
    <rdf:RDF>
      <cc:Work
         rdf:about="">
        <dc:format>image/svg+xml</dc:format>
        <dc:type
           rdf:resource="http://purl.org/dc/dcmitype/StillImage" />
        <dc:title></dc:title>
      </cc:Work>
    </rdf:RDF>
  </metadata>
  <defs
     id="defs3717" />
  <sodipodi:namedview
     pagecolor="#ffffff"
     bordercolor="#666666"
     borderopacity="1"
     objecttolerance="10"
     gridtolerance="10"
     guidetolerance="10"
     inkscape:pageopacity="0"
     inkscape:pageshadow="2"
     inkscape:window-width="1366"
     inkscape:window-height="705"
     id="namedview3715"
     showgrid="false"
     inkscape:zoom="1"
     inkscape:cx="202.48718"
     inkscape:cy="232.95212"
     inkscape:window-x="-8"
     inkscape:window-y="-8"
     inkscape:window-maximized="1"
     inkscape:current-layer="svg3713" />
  <path
     style="fill:#000000;stroke:#000000;stroke-width:1px;stroke-linecap:butt;stroke-linejoin:miter;stroke-opacity:0"
     d="m 168.26966,62.322097 c 0,0 0.66848,12.295252 0.4794,17.737828 -0.18908,5.442576 -1.4382,14.861423 -1.4382,14.861423 l -2.8764,20.134832 c 0,0 -5.34017,18.56461 -8.14981,27.80525 -3.55795,11.70177 -6.49146,16.36633 -11.50562,35.95505 11.02621,10.54681 11.98501,10.54681 11.98501,10.54681 l 14.38202,12.94382 c 0,0 19.50033,15.09206 28.28465,21.09364 8.78432,6.00159 24.44944,14.86142 24.44944,14.86142 l 21.09363,11.50562 c 0,0 6.8061,1.35646 8.62922,0 1.82312,-1.35646 1.4382,-4.79401 1.4382,-4.79401 l -14.38202,-28.76404 -17.25843,-27.32585 -17.25843,-23.01123 -7.19101,-2.87641 -5.75281,20.13484 c 0,0 9.01273,0.13545 13.90262,4.794 4.88989,4.65855 9.58802,23.97004 9.58802,23.97004 0,0 1.04758,3.0737 -0.9588,4.79401 -2.00639,1.7203 -7.19101,-1.4382 -7.19101,-1.4382 L 188.40449,202.30712 169.70787,189.3633 c 0,0 -9.04855,-6.7661 -16.29963,-12.94382 3.29574,-11.45113 11.50562,-32.11985 11.50562,-32.11985 l 11.02621,-28.28465 c 0,0 5.5219,-12.25968 8.62922,-18.217227 1.78741,-3.426924 5.1734,-6.298542 5.75281,-10.067416 0.57941,-3.768874 -0.76374,-7.908025 -2.39701,-11.026217 -1.63327,-3.118192 -3.47568,-4.661484 -6.71161,-7.191012 -3.23593,-2.529528 -12.94382,-7.191011 -12.94382,-7.191011 z"
     id="path3723"
     inkscape:connector-curvature="0"
     sodipodi:nodetypes="czccsccczcczcccccczczccccccsczzc" />
  <path
     style="fill:#000000;stroke:#000000;stroke-width:1px;stroke-linecap:butt;stroke-linejoin:miter;stroke-opacity:0"
     d="m 167.93786,105.76716 c -1.47445,3.50549 3.74033,5.78904 7.07107,8.13172 3.33074,2.34268 8.85964,1.71723 12.72792,3.88909 2.47484,1.38951 4.37101,0.72513 6.36396,5.65686 1.99295,4.93173 -2.33908,15.89553 -4.24264,23.68807 -1.78679,7.3145 -4.31678,14.43017 -6.71752,21.56676 -1.87803,5.58278 -3.67083,11.21138 -6.0104,16.61701 -2.68042,6.19318 -5.71741,12.25057 -9.16617,18.0511 -3.72513,6.26537 -7.74991,12.39862 -12.40059,18.01134 -2.96421,3.57739 -6.13572,7.05772 -9.81111,9.8995 -3.15419,2.43881 -6.43759,5.2 -10.34143,6.01041 -3.95035,0.82006 -7.99316,-1.17811 -12.02082,-1.41422 -2.11227,-0.44331 -4.76626,-0.74469 -3.53553,0 1.22049,0.67131 2.15498,1.32601 2.94777,1.60311 0.67023,0.23427 1.21396,0.85534 2.00198,1.22532 2.73438,1.28381 5.48382,2.84103 8.48528,3.18198 5.31604,0.60387 10.76359,-0.65826 15.90989,-2.12132 3.60262,-1.0242 7.043,-2.66662 10.25306,-4.5962 3.45498,-2.0768 5.40996,-2.90604 9.54594,-7.42462 4.13598,-4.51858 7.89226,-9.80064 12.02082,-16.26345 4.12856,-6.46281 7.72269,-14.19908 12.37436,-22.62742 4.65167,-8.42834 11.69152,-20.03927 15.55635,-27.93072 3.86483,-7.89145 6.041,-13.77414 8.13173,-19.09188 2.09073,-5.31774 5.21691,-8.10722 4.5962,-12.72792 -3.11511,-8.30157 -4.46711,-9.20094 -7.77818,-12.72793 -2.24263,-2.38887 -4.83078,-3.90653 -8.13173,-5.3033 -2.82399,-1.19494 -4.84643,-1.13665 -9.19239,-1.76776 -4.34596,-0.63111 -16.617,-4.24264 -16.617,-4.24264 0,0 -10.54637,-2.79838 -12.02082,0.70711 z"
     id="path4530"
     inkscape:connector-curvature="0"
     sodipodi:nodetypes="zzazaaaaaaaccssaaazzzzzcssscz" />
  <path
     style="fill:#000000;stroke:#000000;stroke-width:1px;stroke-linecap:butt;stroke-linejoin:miter;stroke-opacity:0.05389221"
     d="m 47,193 c 0,0 1.976325,7.06919 4.5,9.5 4.570948,4.40275 11.164082,7.13405 17.5,7.5 8.159867,0.4713 15.810677,-4.22874 23.5,-7 8.0088,-2.8864 15.82288,-6.32113 23.5,-10 12.10364,-5.80007 23.52774,-12.93339 35.5,-19 11.7034,-5.93037 23.68244,-11.30052 35.5,-17 11.68235,-5.63427 23.42342,-11.15149 35,-17 6.72061,-3.39527 14.19166,-5.70859 20,-10.5 1.64647,-1.3582 5.10127,-3.17168 4,-5 -1.83836,-3.05203 -7.0971,0.94419 -10.5,2 -17.03532,5.28553 -32.56117,14.57874 -49,21.5 -9.44153,3.97517 -18.94929,7.79482 -28.5,11.5 -8.45663,3.28073 -17.0262,6.26388 -25.5,9.5 -11.53644,4.40574 -22.92374,9.19998 -34.5,13.5 -8.943766,3.32217 -17.630817,7.69828 -27,9.5 -7.862876,1.51205 -24,1 -24,1 z"
     id="path4532"
     inkscape:connector-curvature="0"
     sodipodi:nodetypes="caaaaaaaaaaaaaaac" />
  <path
     style="fill:#000000;stroke:#000000;stroke-width:1px;stroke-linecap:butt;stroke-linejoin:miter;stroke-opacity:0"
     d="m 263.5,153 c -3.30353,2.26152 -1.77081,8.20358 -0.5,12 1.91701,5.72689 6.86198,10.13205 11.5,14 3.95343,3.29703 8.36164,7.18819 13.5,7.5 5.74607,0.34868 10.95656,-3.72464 16,-6.5 3.76829,-2.07365 7.1312,-4.82583 10.5,-7.5 4.34714,-3.45078 8.29797,-7.37392 12.5,-11 4.29757,-3.70852 13,-11 13,-11 0,0 -10.58641,3.3221 -16,4.5 -7.41667,1.61374 -14.94098,2.81274 -22.5,3.5 -6.14358,0.55857 -12.38783,1.3348 -18.5,0.5 -6.73818,-0.92029 -13.10681,-3.87663 -19.5,-6 z"
     id="path4534"
     inkscape:connector-curvature="0"
     sodipodi:nodetypes="caaaaaacaaac" />
  <path
     style="fill:#000000;stroke:#000000;stroke-width:1px;stroke-linecap:butt;stroke-linejoin:miter;stroke-opacity:0"
     d="m 339.5,39.000002 c 4.73922,8.898552 8.76292,15.831992 11,24.5 1.50457,5.829773 1.4723,11.979266 1.5,18 0.0415,9.024561 -1.48624,17.989977 -2,26.999998 -0.47478,8.32647 -1.0991,16.66059 -1,25 0.0933,7.84872 1.38061,15.65163 1.5,23.5 0.0761,5.0022 0.43584,10.08553 -0.5,15 -0.46348,2.43394 -0.47471,5.57274 -2.5,7 -1.4986,1.05609 -3.70411,0.36862 -5.5,0 -4.97349,-1.02085 -14,-6 -14,-6 0,0 6.68845,9.26065 10.5,13.5 4.33439,4.82088 8.35452,10.3131 14,13.5 2.25315,1.27191 5.23859,3.25716 7.5,2 3.50215,-1.94692 2.97034,-7.52822 3.5,-11.5 1.45471,-10.90848 -0.83331,-21.99621 -1,-33 -0.14389,-9.49891 -0.75878,-19.03035 0,-28.5 0.836,-10.43344 2.44161,-20.85061 5,-30.999998 2.11288,-8.382002 9.40992,-15.903823 8.5,-24.5 -0.67698,-6.39553 -5.7571,-11.666891 -10,-16.5 -3.52028,-4.00997 -8.08687,-7.000578 -12.5,-10 -4.4453,-3.021289 -14,-8 -14,-8 z"
     id="path4538"
     inkscape:connector-curvature="0"
     sodipodi:nodetypes="caaaaaaaacaaaaaaaaaac" />
  <path
     style="fill:#000000;stroke:#000000;stroke-width:1px;stroke-linecap:butt;stroke-linejoin:miter;stroke-opacity:1"
     d="m 451,50.000002 c 0,0 6.38536,15.009728 7,23 0.36155,4.70016 -0.56735,9.508929 -2,14 C 452.23945,98.788529 445.61751,109.5444 439,120 c -11.44522,18.08333 -25.43909,34.44399 -39,51 -22.75105,27.77591 -46.61963,54.64267 -71,81 -26.25034,28.37894 -52.2511,57.15536 -81,83 -29.65584,26.65996 -62.67601,49.32147 -94,74 -17.33851,13.6601 -34.93609,26.99839 -52,41 -13.891261,11.39832 -26.871452,23.89716 -41,35 -5.819333,4.57309 -18,13 -18,13 0,0 24.668913,-4.8311 36,-10 28.00937,-12.77704 51.873,-33.21203 77,-51 30.68866,-21.7252 60.92559,-44.15767 90,-68 12.41489,-10.18078 24.66066,-20.6335 36,-32 8.17217,-8.19174 15.31809,-17.34684 23,-26 16.30104,-18.36205 33.43554,-36.00957 49,-55 22.48208,-27.43073 43.18322,-56.28501 64,-85 10.2579,-14.14991 20.93344,-28.05872 30,-43 8.58546,-14.14845 17.48827,-28.395202 23,-43.999998 2.26426,-6.410565 4.79705,-13.24819 4,-20 -0.55952,-4.739696 -2.05278,-10.317235 -6,-13 -4.97,-3.377904 -18,-1 -18,-1 z"
     id="path4542"
     inkscape:connector-curvature="0"
     sodipodi:nodetypes="caaaaaaaaacaaaaaaaaaaac" />
  <path
     style="fill:#000000;stroke:#000000;stroke-width:1px;stroke-linecap:butt;stroke-linejoin:miter;stroke-opacity:0"
     d="m 441,126 c 13.07135,-2.81839 21.68268,-7.8283 33,-8 6.47142,-0.0982 13.23743,1.05353 19,4 4.41206,2.25594 12.20877,5.19433 11,10 -1.67626,6.66426 -13.12818,5.01878 -20,5 -14.79484,-0.0404 -29.09326,-3.2054 -43,-11 z"
     id="path4544"
     inkscape:connector-curvature="0"
     sodipodi:nodetypes="caaaac" />
</svg>
