<?xml version="1.0" encoding="UTF-8" standalone="no"?>
<!-- Created with Inkscape (http://www.inkscape.org/) -->

<svg
   xmlns:dc="http://purl.org/dc/elements/1.1/"
   xmlns:cc="http://creativecommons.org/ns#"
   xmlns:rdf="http://www.w3.org/1999/02/22-rdf-syntax-ns#"
   xmlns:svg="http://www.w3.org/2000/svg"
   xmlns="http://www.w3.org/2000/svg"
   xmlns:sodipodi="http://sodipodi.sourceforge.net/DTD/sodipodi-0.dtd"
   xmlns:inkscape="http://www.inkscape.org/namespaces/inkscape"
   version="1.1"
   id="svg815"
   width="528"
   height="512"
   viewBox="0 0 528 512"
   sodipodi:docname="U+59FF.svg"
   inkscape:version="0.92.4 (5da689c313, 2019-01-14)">
  <metadata
     id="metadata821">
    <rdf:RDF>
      <cc:Work
         rdf:about="">
        <dc:format>image/svg+xml</dc:format>
        <dc:type
           rdf:resource="http://purl.org/dc/dcmitype/StillImage" />
        <dc:title></dc:title>
      </cc:Work>
    </rdf:RDF>
  </metadata>
  <defs
     id="defs819" />
  <sodipodi:namedview
     pagecolor="#ffffff"
     bordercolor="#666666"
     borderopacity="1"
     objecttolerance="10"
     gridtolerance="10"
     guidetolerance="10"
     inkscape:pageopacity="0"
     inkscape:pageshadow="2"
     inkscape:window-width="1366"
     inkscape:window-height="705"
     id="namedview817"
     showgrid="false"
     inkscape:zoom="1.0429688"
     inkscape:cx="254.70494"
     inkscape:cy="256"
     inkscape:window-x="-8"
     inkscape:window-y="-8"
     inkscape:window-maximized="1"
     inkscape:current-layer="svg815" />
  <path
     style="fill:#000000;stroke:none;stroke-width:1px;stroke-linecap:butt;stroke-linejoin:miter;stroke-opacity:1;fill-opacity:1"
     d="m 116.97378,112.17978 c 6.44003,-4.02959 14.45754,5.92367 22.05244,5.7528 14.04797,-0.31606 40.26966,-12.46442 40.26966,-12.46442 0,0 8.45308,5.57067 7.67041,9.58802 -12.46114,7.07694 -30.11923,18.58465 -45.06367,20.13483 -11.66288,1.20978 -21.83272,1.46115 -27.80524,-8.62921 -2.49025,-4.20719 -1.2681,-11.78877 2.8764,-14.38202 z"
     id="path825"
     inkscape:connector-curvature="0"
     sodipodi:nodetypes="ssccsss" />
  <path
     style="fill:#000000;stroke:none;stroke-width:1px;stroke-linecap:butt;stroke-linejoin:miter;stroke-opacity:1;fill-opacity:1"
     d="m 101.63296,201.34831 c 15.1213,9.32293 15.34082,27.80525 15.34082,27.80525 0,0 16.81611,6.04147 24.92884,3.8352 10.74099,-2.92103 17.31123,-13.99811 25.88764,-21.09363 8.03996,-6.6517 28.10115,-10.55256 23.97004,-20.13483 -24.12977,3.58373 -31.59844,5.50649 -53.69288,7.67041 -7.97737,0.7813 -32.63811,-5.14191 -36.43446,1.9176 z"
     id="path833"
     inkscape:connector-curvature="0"
     sodipodi:nodetypes="ccsscsc" />
  <path
     style="fill:#000000;stroke:none;stroke-width:1px;stroke-linecap:butt;stroke-linejoin:miter;stroke-opacity:1;fill-opacity:1"
     d="m 238.74157,48.898876 c -8.34618,20.281509 24.08554,20.460622 21.09364,42.187263 -2.00747,14.577941 -10.54682,35.990621 -21.09363,52.734081 -10.54682,16.74347 1.2784,19.17603 7.67041,19.17603 15.98002,-17.25843 22.54037,-23.6338 28.76404,-38.35206 7.18288,-16.98668 14.47613,-37.160123 8.62921,-54.651681 -4.37097,-13.07614 -16.09588,-26.66717 -29.72284,-28.764045 -5.65068,-0.86951 -13.16513,2.383391 -15.34083,7.670412 z"
     id="path837"
     inkscape:connector-curvature="0"
     sodipodi:nodetypes="sszccsss" />
  <path
     style="fill:#000000;stroke:none;stroke-width:1px;stroke-linecap:butt;stroke-linejoin:miter;stroke-opacity:1;fill-opacity:1"
     d="m 288.59925,103.55057 c 0,0 18.58126,16.56477 29.72285,17.25842 17.96528,1.11848 57.52809,-11.50562 57.52809,-11.50562 0,0 -14.99097,27.13015 -22.05244,46.98127 2.3107,4.73751 10.22133,5.08983 15.34083,3.83521 1.77905,-0.43599 3.59632,-1.06385 5.43802,-1.85495 28.62634,-22.15477 36.83829,-29.98145 54.00767,-50.87913 -6.69692,-9.45276 -14.63543,-22.738347 -26.84644,-24.928841 -8.16695,-1.465043 -17.32772,1.739188 -23.97004,6.71161 -2.41371,1.806896 -1.93483,6.713348 -4.79401,7.670412 -28.02601,9.381259 -84.37453,6.711619 -84.37453,6.711619 z"
     id="path841"
     inkscape:connector-curvature="0"
     sodipodi:nodetypes="csccsccsssc" />
  <path
     style="fill:#000000;stroke:none;stroke-width:1px;stroke-linecap:butt;stroke-linejoin:miter;stroke-opacity:1;fill-opacity:1"
     d="m 288.59925,139.98502 c -10.68477,5.77341 5.25625,14.83462 -4.79401,41.22847 -7.07425,18.57832 -14.47625,35.29596 -47.94007,63.28089 12.91851,14.26134 35.58854,-16.78529 48.89887,-30.68165 14.75235,-15.40186 31.64045,-55.61048 31.64045,-55.61048 0,0 -18.05683,-23.48469 -27.80524,-18.21723 z"
     id="path843"
     inkscape:connector-curvature="0"
     sodipodi:nodetypes="sscscs" />
  <path
     style="fill:#000000;fill-opacity:1;stroke:none;stroke-width:1px;stroke-linecap:butt;stroke-linejoin:miter;stroke-opacity:1"
     d="m 311.61049,194.6367 c 0,0 36.8404,40.22875 64.2397,50.81648 4.65673,1.79948 12.29361,-0.76341 12.46442,-5.75281 -5.45021,-19.60221 1.71007,-0.50189 -3.53261,-6.17899 -9.12231,-9.8782 -22.09376,-24.92155 -40.57226,-36.00827 -9.35416,-5.61231 -32.59925,-2.87641 -32.59925,-2.87641 z"
     id="path847"
     inkscape:connector-curvature="0"
     sodipodi:nodetypes="cscssc" />
  <path
     style="fill:#000000;stroke:none;stroke-width:1px;stroke-linecap:butt;stroke-linejoin:miter;stroke-opacity:1;fill-opacity:1"
     d="m 243.53558,253.1236 c -6.79974,13.51244 6.70957,24.58401 -7.67041,47.94007 -13.32295,21.63923 -24.35899,33.6093 -48.89888,58.48689 1.16607,5.59701 9.62364,7.67041 15.34083,7.67041 10.71972,0 23.91738,-14.86732 33.55805,-24.92884 14.96403,-15.61727 35.80022,-42.36477 36.43445,-53.69288 0.9131,-16.30898 -13.03414,-40.45412 -28.76404,-35.47565 z"
     id="path855"
     inkscape:connector-curvature="0"
     sodipodi:nodetypes="cscsasc" />
  <path
     style="fill:#000000;stroke:none;stroke-width:1px;stroke-linecap:butt;stroke-linejoin:miter;stroke-opacity:1;fill-opacity:1"
     d="m 210.93633,360.50936 c 0,0 36.94252,11.64967 53.69288,21.09364 31.18209,17.58067 53.90152,48.06832 85.33334,65.1985 7.45652,4.06377 17.9249,14.5933 23.97003,8.62921 6.97908,-6.88552 0.31391,-22.88471 -6.71161,-29.72284 -10.1759,-9.90449 -72.58907,-45.08511 -95.88015,-57.52809 -22.72769,-11.87961 -27.21283,-15.04402 -41.22846,-15.34083 -6.88286,-0.14576 -19.17603,7.67041 -19.17603,7.67041 z"
     id="path857"
     inkscape:connector-curvature="0"
     sodipodi:nodetypes="csssscsc" />
  <path
     style="fill:#000000;stroke:none;stroke-width:1px;stroke-linecap:butt;stroke-linejoin:miter;stroke-opacity:1;fill-opacity:1"
     d="m 290.51685,248.32959 c 0,0 6.67926,36.83406 1.91761,54.65168 -9.33009,34.91227 -32.26538,62.94493 -61.3633,84.37454 -33.49904,24.67088 -116.01498,46.02247 -116.01498,46.02247 0,0 57.77934,5.4026 84.37453,-3.83521 35.69268,-12.39782 65.74145,-39.03168 92.04495,-66.1573 13.94593,-14.38182 30.59419,-30.04503 33.55805,-49.85768 2.27358,-15.19832 -5.51674,-30.9274 -13.42322,-44.10487 -5.11596,-8.5266 -21.09364,-21.09363 -21.09364,-21.09363 z"
     id="path865"
     inkscape:connector-curvature="0"
     sodipodi:nodetypes="csscssssc" />
  <path
     style="fill:#000000;stroke:none;stroke-width:1px;stroke-linecap:butt;stroke-linejoin:miter;stroke-opacity:1;fill-opacity:1"
     d="m 11.505618,316.40449 c 0,0 -1.359465,19.44841 3.835206,26.84645 6.654957,9.47772 19.145621,15.28189 30.681648,16.29962 20.18198,1.78049 34.162192,-7.48349 53.114099,-16.45572 11.207509,-5.30587 27.271169,-10.50972 38.930849,-13.26712 43.10762,-10.19453 87.30782,-15.44754 131.3558,-20.13484 47.75666,-5.08195 96.21628,-14.98438 143.82023,-8.62921 27.74943,3.70458 52.05956,21.7131 79.58052,26.84644 7.23301,1.34914 15.99146,5.13027 22.05243,0.9588 2.42789,-1.671 4.20661,-4.65729 4.94547,-7.80566 0.52794,-2.24961 1.57844,-5.37529 -0.15146,-6.57636 -17.64547,-12.25127 -37.29015,-40.54001 -62.3221,-42.18726 -7.84417,-0.51619 -13.27892,9.69373 -21.09363,10.54681 -93.42706,10.19886 -142.03425,12.84138 -212.85393,21.09363 -62.13643,7.24043 -152.991424,24.20938 -186.007492,24.92884 -9.575083,0.20865 -25.88764,-12.46442 -25.88764,-12.46442 z"
     id="path867"
     inkscape:connector-curvature="0"
     sodipodi:nodetypes="cssssssssssssssc" />
</svg>
