<?xml version="1.0" encoding="UTF-8" standalone="no"?>
<!-- Created with Inkscape (http://www.inkscape.org/) -->

<svg
   xmlns:dc="http://purl.org/dc/elements/1.1/"
   xmlns:cc="http://creativecommons.org/ns#"
   xmlns:rdf="http://www.w3.org/1999/02/22-rdf-syntax-ns#"
   xmlns:svg="http://www.w3.org/2000/svg"
   xmlns="http://www.w3.org/2000/svg"
   xmlns:sodipodi="http://sodipodi.sourceforge.net/DTD/sodipodi-0.dtd"
   xmlns:inkscape="http://www.inkscape.org/namespaces/inkscape"
   version="1.1"
   id="svg840"
   width="557"
   height="512"
   viewBox="0 0 557 512"
   sodipodi:docname="U+598D.svg"
   inkscape:version="0.92.4 (5da689c313, 2019-01-14)">
  <metadata
     id="metadata846">
    <rdf:RDF>
      <cc:Work
         rdf:about="">
        <dc:format>image/svg+xml</dc:format>
        <dc:type
           rdf:resource="http://purl.org/dc/dcmitype/StillImage" />
        <dc:title></dc:title>
      </cc:Work>
    </rdf:RDF>
  </metadata>
  <defs
     id="defs844" />
  <sodipodi:namedview
     pagecolor="#ffffff"
     bordercolor="#666666"
     borderopacity="1"
     objecttolerance="10"
     gridtolerance="10"
     guidetolerance="10"
     inkscape:pageopacity="0"
     inkscape:pageshadow="2"
     inkscape:window-width="1920"
     inkscape:window-height="1017"
     id="namedview842"
     showgrid="false"
     inkscape:zoom="1.3037281"
     inkscape:cx="137.76284"
     inkscape:cy="261.75788"
     inkscape:window-x="-8"
     inkscape:window-y="-8"
     inkscape:window-maximized="1"
     inkscape:current-layer="svg840" />
  <path
     style="fill:#000000;stroke:none;stroke-width:1px;stroke-linecap:butt;stroke-linejoin:miter;stroke-opacity:1;fill-opacity:1"
     d="m 148.80403,104.70649 c 0,0 12.19571,23.43672 12.2725,36.05046 -6.70634,32.35038 -15.09501,50.6554 -26.07906,84.37343 -2.19039,6.7239 -15.14887,17.53861 -16.10765,24.54499 -0.57381,4.19313 1.94764,9.01461 5.36922,11.50547 3.33302,2.42639 9.05885,-1.04836 12.27249,1.53406 19.54514,15.70613 38.13787,45.71121 46.02187,55.22624 8.80278,10.62388 13.19821,21.43646 17.64171,34.51639 1.30036,3.82776 6.7529,6.0461 10.73844,5.36922 3.42849,-0.58227 5.5772,-5.00499 6.13625,-8.43734 1.63791,-10.05614 -6.37422,-18.04387 -11.50547,-26.84609 -15.30628,-26.25655 -36.78435,-45.78611 -59.82842,-69.0328 -2.9795,-3.00569 -10.15582,-1.35797 -11.50547,-5.36921 10.05443,-22.57135 21.21277,-37.22357 29.91421,-56.7603 8.42533,-18.91682 21.47687,-58.29437 21.47687,-58.29437 -16.26272,-8.45476 -36.81749,-28.38015 -36.81749,-28.38015 z"
     id="path850"
     inkscape:connector-curvature="0"
     sodipodi:nodetypes="ccsssssssssscscc" />
  <path
     style="fill:#000000;stroke:none;stroke-width:1px;stroke-linecap:butt;stroke-linejoin:miter;stroke-opacity:1;fill-opacity:1"
     d="m 205.56433,153.02945 c 0,0 2.31,25.27116 0,37.58453 -4.5524,24.26639 -15.65203,47.02654 -26.84609,69.03279 -12.66941,24.90662 -24.08473,52.32733 -45.25483,70.56686 -16.55994,14.26755 -59.828426,26.84609 -59.828426,26.84609 0,0 32.630626,3.83082 47.555926,-1.53406 13.37905,-4.80909 24.63392,-15.16874 33.74937,-26.07906 14.22417,-17.02496 20.90873,-39.1447 30.68124,-59.06139 9.92704,-20.23164 20.24051,-40.34793 28.38015,-61.36249 3.68,-9.50086 10.60344,-19.05504 9.20438,-29.14718 -1.47037,-10.60652 -17.64172,-26.84609 -17.64172,-26.84609 z"
     id="path1398"
     inkscape:connector-curvature="0"
     sodipodi:nodetypes="cssscsssssc" />
  <path
     style="fill:#000000;stroke:none;stroke-width:1px;stroke-linecap:butt;stroke-linejoin:miter;stroke-opacity:1;fill-opacity:1"
     d="m 9.9714041,216.69303 c 0,0 7.4093709,22.76412 16.8746839,28.38015 16.000423,9.4935 33.749368,-1.53406 33.749368,-1.53406 0,0 45.598704,-14.40187 72.100924,-19.17578 17.29468,-3.11533 34.59088,-8.12174 52.15811,-7.67031 6.51636,0.16745 14.9167,8.76986 19.17578,3.83516 6.72464,-7.79136 17.88134,-14.3411 28.38015,-24.545 3.522,-3.42306 -6.89464,-10.89612 -11.50547,-9.20437 -12.31165,4.51723 -36.71669,18.74288 -56.7603,21.47687 -37.54518,5.12124 -83.168275,13.47946 -112.753567,17.64172 -14.005431,1.97038 -41.4196789,-9.20438 -41.4196789,-9.20438 z"
     id="path1400"
     inkscape:connector-curvature="0"
     sodipodi:nodetypes="cscsssssssc" />
  <path
     style="fill:#000000;stroke:none;stroke-width:1px;stroke-linecap:butt;stroke-linejoin:miter;stroke-opacity:1;fill-opacity:1"
     d="m 280.73338,148.42727 c 11.34807,13.13805 24.28998,28.77153 37.58452,24.54499 29.0482,-9.23488 74.08866,-9.57435 111.21951,-17.64171 11.29025,-2.45302 37.43192,-4.69013 31.44827,-14.5736 0,0 -14.46697,-15.21359 -23.01093,-13.03952 -28.94833,7.36611 -77.28073,20.87587 -118.88982,27.61312 -12.24286,1.98233 -46.84229,-16.7333 -38.35155,-6.90328 z"
     id="path1402"
     inkscape:connector-curvature="0"
     sodipodi:nodetypes="sssssss" />
  <path
     style="fill:#000000;stroke:none;stroke-width:1px;stroke-linecap:butt;stroke-linejoin:miter;stroke-opacity:1;fill-opacity:1"
     d="m 234.71151,242.00506 c 0,0 11.56195,22.84944 16.87469,34.5164 2.01599,4.42719 9.955,2.29439 14.57359,0.76703 9.13777,-3.02184 13.68403,-14.00887 22.2439,-18.40875 12.46535,-6.40735 32.21894,-7.53866 46.02187,-9.9714 30.59297,-5.39194 56.39686,-8.09512 87.44154,-9.20438 26.57837,-0.94967 53.36383,-1.62196 79.77123,1.53407 11.70285,1.39864 23.70804,12.37055 34.5164,7.67031 4.6244,-2.01102 11.70888,-10.01973 7.67031,-13.03953 -10.62854,-7.9474 -21.47272,-16.75128 -33.74937,-15.34062 -40.93861,4.7041 -89.16834,5.86455 -133.46341,11.50546 -38.06881,4.84801 -71.41179,9.70765 -112.75357,16.87469 -9.79899,1.69876 -29.14718,-6.90328 -29.14718,-6.90328 z"
     id="path1404"
     inkscape:connector-curvature="0"
     sodipodi:nodetypes="csssssssssssc" />
  <path
     style="fill:#000000;stroke:none;stroke-width:1px;stroke-linecap:butt;stroke-linejoin:miter;stroke-opacity:1;fill-opacity:1"
     d="m 314.48274,176.80742 c -10.84792,-5.82899 7.73265,25.89962 9.20438,38.35155 3.87701,32.80254 -0.22127,66.31978 -5.36922,98.94701 -2.80299,17.76507 -5.86685,36.02072 -13.80656,52.15811 -1.85126,3.76266 -9.40446,6.15337 -7.67031,9.97141 1.69503,3.73191 11.87551,-2.52082 13.80656,-6.13625 9.95377,-18.63597 17.24398,-26.12666 19.9428,-42.18672 7.13283,-42.44577 9.06202,-76.98358 10.73844,-119.65684 -8.23401,-11.29317 -17.62572,-26.49383 -26.84609,-31.44827 z"
     id="path1406"
     inkscape:connector-curvature="0"
     sodipodi:nodetypes="ssssssscs" />
  <path
     style="fill:#000000;stroke:none;stroke-width:1px;stroke-linecap:butt;stroke-linejoin:miter;stroke-opacity:1;fill-opacity:1"
     d="m 381.21445,168.37007 c 0,0 10.14977,23.04225 16.87468,33.74937 -3.0533,42.30236 -1.32533,86.9504 0,130.39529 1.02318,33.54048 8.51761,67.00959 6.13625,100.48107 -0.62985,8.85297 0.34974,18.44253 -7.67031,22.2439 -5.47712,2.59607 -17.28751,-12.84856 -16.10765,-6.90328 2.45872,12.38946 13.34916,18.53797 16.87468,27.61312 1.70718,4.3945 0.72339,9.71654 3.06813,13.80656 2.42942,4.23772 7.82969,13.89563 10.73843,9.9714 7.11883,-9.60414 2.74997,-40.88485 3.83515,-50.62405 6.06441,-54.42643 -2.15305,-91.07198 0,-136.53153 1.91973,-40.53318 2.844,-86.66152 11.50547,-121.19092 -16.70336,-7.53469 -45.25483,-23.01093 -45.25483,-23.01093 z"
     id="path1408"
     inkscape:connector-curvature="0"
     sodipodi:nodetypes="ccssssssssacc" />
</svg>
