<?xml version="1.0" encoding="UTF-8" standalone="no"?>
<!-- Created with Inkscape (http://www.inkscape.org/) -->

<svg
   xmlns:dc="http://purl.org/dc/elements/1.1/"
   xmlns:cc="http://creativecommons.org/ns#"
   xmlns:rdf="http://www.w3.org/1999/02/22-rdf-syntax-ns#"
   xmlns:svg="http://www.w3.org/2000/svg"
   xmlns="http://www.w3.org/2000/svg"
   xmlns:sodipodi="http://sodipodi.sourceforge.net/DTD/sodipodi-0.dtd"
   xmlns:inkscape="http://www.inkscape.org/namespaces/inkscape"
   version="1.1"
   id="svg869"
   width="560"
   height="512"
   viewBox="0 0 560 512"
   sodipodi:docname="U+65BD.svg"
   inkscape:version="0.92.4 (5da689c313, 2019-01-14)">
  <metadata
     id="metadata875">
    <rdf:RDF>
      <cc:Work
         rdf:about="">
        <dc:format>image/svg+xml</dc:format>
        <dc:type
           rdf:resource="http://purl.org/dc/dcmitype/StillImage" />
        <dc:title></dc:title>
      </cc:Work>
    </rdf:RDF>
  </metadata>
  <defs
     id="defs873" />
  <sodipodi:namedview
     pagecolor="#ffffff"
     bordercolor="#666666"
     borderopacity="1"
     objecttolerance="10"
     gridtolerance="10"
     guidetolerance="10"
     inkscape:pageopacity="0"
     inkscape:pageshadow="2"
     inkscape:window-width="1366"
     inkscape:window-height="705"
     id="namedview871"
     showgrid="false"
     inkscape:zoom="0.921875"
     inkscape:cx="279.7746"
     inkscape:cy="253.17958"
     inkscape:window-x="-8"
     inkscape:window-y="-8"
     inkscape:window-maximized="1"
     inkscape:current-layer="svg869" />
  <path
     style="fill:#000000;stroke:none;stroke-width:1px;stroke-linecap:butt;stroke-linejoin:miter;stroke-opacity:1;fill-opacity:1"
     d="m 122.57627,123.66102 c 0,0 9.64914,24.99732 18.44068,34.71186 8.74791,9.66633 32.54237,21.69492 32.54237,21.69492 0,0 6.92174,-29.41122 -1.08474,-40.1356 -10.46603,-14.01885 -49.89831,-16.27118 -49.89831,-16.27118 z"
     id="path1426"
     inkscape:connector-curvature="0"
     sodipodi:nodetypes="cscsc" />
  <path
     style="fill:#000000;stroke:none;stroke-width:1px;stroke-linecap:butt;stroke-linejoin:miter;stroke-opacity:1;fill-opacity:1"
     d="m 1.0847458,202.84746 c 1.3092755,17.94994 21.6666722,33.65798 39.0508482,34.71186 5.706635,0.34595 9.034416,-7.11543 14.101694,-9.76271 25.656644,-13.40369 53.837732,-21.39117 81.355932,-30.37288 50.017,-16.32513 72.27806,-10.88938 118.23729,-13.01695 6.4309,-0.2977 -5.55,-16.03061 -11.9322,-15.18644 C 192.85289,175.70755 137.2401,182.25184 70.508475,192 c -14.153989,2.06762 -29.240057,10.77423 -43.389831,15.18644 0,0 -13.180278,-4.6034 -26.0338982,-4.33898 z"
     id="path1428"
     inkscape:connector-curvature="0"
     sodipodi:nodetypes="csssssssc" />
  <path
     style="fill:#000000;stroke:none;stroke-width:1px;stroke-linecap:butt;stroke-linejoin:miter;stroke-opacity:1;fill-opacity:1"
     d="m 174.64407,235.38983 c -4.50822,1.37913 -12.29561,2.89279 -11.93221,7.59322 0.48676,6.29597 11.51486,5.19364 17.35594,7.59322 4.65847,1.91376 12.09397,0.80497 14.10169,5.42373 -6.32647,25.80613 -24.94915,61.83051 -24.94915,61.83051 l -24.94915,48.81356 c -5.37282,10.51205 -21.92799,-9.30295 -31.45763,-16.27119 -7.42994,-5.4329 -19.525424,-19.52542 -19.525424,-19.52542 0,0 2.345661,27.57157 7.593224,40.13559 7.11252,17.0292 13.14408,43.27988 31.45762,45.55932 11.44271,1.42424 40.95743,-51.25759 45.55932,-61.83051 16.11303,-37.01991 19.89139,-44.21979 46.64407,-93.28813 4.95943,-9.09631 -0.75449,-22.00096 -9.76271,-27.11865 -11.63664,-6.61094 -27.33763,-2.83034 -40.13559,1.08475 z"
     id="path1434"
     inkscape:connector-curvature="0"
     sodipodi:nodetypes="sssccsscssssss" />
  <path
     style="fill:#000000;stroke:none;stroke-width:1px;stroke-linecap:butt;stroke-linejoin:miter;stroke-opacity:1;fill-opacity:1"
     d="m 152.94915,202.84746 c 0,0 2.68029,34.46662 -17.35593,55.32203 -49.063769,51.06976 -136.6779657,122.57628 -136.6779657,122.57628 0,0 56.6059507,-18.09458 73.7627117,-32.54238 20.61017,-17.35593 62.952244,-50.57673 109.559324,-100.88136 2.28838,-17.40462 -29.28814,-44.47457 -29.28814,-44.47457 z"
     id="path1436"
     inkscape:connector-curvature="0"
     sodipodi:nodetypes="cscscc" />
  <path
     style="fill:#000000;stroke:none;stroke-width:1px;stroke-linecap:butt;stroke-linejoin:miter;stroke-opacity:1;fill-opacity:1"
     d="m 295.05085,64 c 0,0 18.5875,29.283929 8.67796,43.38983 -20.79587,29.60224 -38.02248,54.27488 -37.9661,54.23729 0,0 63.33065,-11.70484 72.67796,-39.05085 4.99616,-14.61648 -15.18643,-49.898304 -15.18643,-49.898304 v 0 z"
     id="path1438"
     inkscape:connector-curvature="0"
     sodipodi:nodetypes="cscscsc" />
  <path
     style="fill:#000000;stroke:none;stroke-width:1px;stroke-linecap:butt;stroke-linejoin:miter;stroke-opacity:1;fill-opacity:1"
     d="m 330.84746,142.10169 c 0,0 5.38818,17.81261 13.01695,20.61017 12.45464,4.56726 24.95345,-9.35363 37.9661,-11.9322 16.37709,-3.24526 39.97497,9.08742 49.8983,-4.33898 3.07709,-4.16335 1.08556,-12.36363 -3.25423,-15.18644 -13.3159,-8.66129 -30.86188,7.95893 -46.64407,9.76271 -16.88825,1.9302 -50.98305,1.08474 -50.98305,1.08474 z"
     id="path1440"
     inkscape:connector-curvature="0"
     sodipodi:nodetypes="csssssc" />
  <path
     style="fill:#000000;stroke:none;stroke-width:1px;stroke-linecap:butt;stroke-linejoin:miter;stroke-opacity:1;fill-opacity:1"
     d="m 224.54237,277.69492 c 0,0 3.67309,18.32281 16.27119,19.52542 46.04069,4.39503 138.84746,-57.49153 138.84746,-57.49153 l -21.69492,67.25424 c 0,0 19.55173,-12.35679 29.28814,-22.77966 12.14232,-12.9984 31.45762,-46.64407 31.45762,-46.64407 -5.00032,-10.73696 -18.55399,-17.66638 -30.37288,-18.44068 -26.70138,15.62538 -72.49123,34.81097 -113.8983,46.64407 -14.75014,4.21522 -49.89831,11.93221 -49.89831,11.93221 z"
     id="path1442"
     inkscape:connector-curvature="0"
     sodipodi:nodetypes="csccsscsc" />
  <path
     style="fill:#000000;stroke:none;stroke-width:1px;stroke-linecap:butt;stroke-linejoin:miter;stroke-opacity:1;fill-opacity:1"
     d="m 311.32203,188.74576 c 0,0 8.99694,19.76604 9.76272,30.37288 2.50838,34.74363 -17.38645,71.78128 -17.35594,103.05085 1.54197,2.67703 5.85525,4.50977 8.67797,3.25424 17.1032,-25.69222 37.76277,-65.51632 40.13559,-101.9661 0.48423,-7.43846 -0.43333,-16.15768 -5.42373,-21.69492 -8.50007,-9.43149 -35.79661,-13.01695 -35.79661,-13.01695 z"
     id="path1444"
     inkscape:connector-curvature="0"
     sodipodi:nodetypes="csccssc" />
  <path
     style="fill:#000000;stroke:none;stroke-width:1px;stroke-linecap:butt;stroke-linejoin:miter;stroke-opacity:1;fill-opacity:1"
     d="m 238.64407,234.30508 c 0,0 9.15759,13.78827 10.84746,21.69492 3.55516,16.63405 -2.1695,50.98305 -2.1695,50.98305 0,0 4.6518,47.67248 20.61017,62.91526 9.59166,9.16156 56.15383,13.75142 85.69492,15.18644 52.02327,2.52714 109.42484,-1.24475 149.69491,-5.42373 19.83629,-2.05849 49.14529,-3.8175 55.32204,-22.77966 5.78134,-17.7483 -29.28814,-47.72882 -29.28814,-47.72882 0,0 0.29838,32.82889 -11.9322,37.9661 -21.49414,9.02819 -69.8216,10.46889 -105.22034,13.01695 -37.14858,2.67402 -91.79384,6.44395 -111.72881,-1.08475 -17.47545,-6.59982 -36.68125,-19.33015 -37.96611,-37.96609 -1.45534,-21.10862 2.79155,-44.49372 7.59323,-66.1695 1.48379,-6.69815 8.58924,-12.98804 6.50847,-19.52542 -2.03991,-6.409 -9.5694,-11.36421 -16.27119,-11.9322 -8.05633,-0.6828 -21.69491,10.84745 -21.69491,10.84745 z"
     id="path1446"
     inkscape:connector-curvature="0"
     sodipodi:nodetypes="cscsssscsssssssc" />
</svg>
