<?xml version="1.0" encoding="UTF-8" standalone="no"?>
<!-- Created with Inkscape (http://www.inkscape.org/) -->

<svg
   xmlns:dc="http://purl.org/dc/elements/1.1/"
   xmlns:cc="http://creativecommons.org/ns#"
   xmlns:rdf="http://www.w3.org/1999/02/22-rdf-syntax-ns#"
   xmlns:svg="http://www.w3.org/2000/svg"
   xmlns="http://www.w3.org/2000/svg"
   xmlns:sodipodi="http://sodipodi.sourceforge.net/DTD/sodipodi-0.dtd"
   xmlns:inkscape="http://www.inkscape.org/namespaces/inkscape"
   version="1.1"
   id="svg3713"
   width="512"
   height="512"
   viewBox="0 0 512 512"
   sodipodi:docname="U+66E6.svg"
   inkscape:version="0.92.4 (5da689c313, 2019-01-14)">
  <metadata
     id="metadata3719">
    <rdf:RDF>
      <cc:Work
         rdf:about="">
        <dc:format>image/svg+xml</dc:format>
        <dc:type
           rdf:resource="http://purl.org/dc/dcmitype/StillImage" />
        <dc:title></dc:title>
      </cc:Work>
    </rdf:RDF>
  </metadata>
  <defs
     id="defs3717" />
  <sodipodi:namedview
     pagecolor="#ffffff"
     bordercolor="#666666"
     borderopacity="1"
     objecttolerance="10"
     gridtolerance="10"
     guidetolerance="10"
     inkscape:pageopacity="0"
     inkscape:pageshadow="2"
     inkscape:window-width="1920"
     inkscape:window-height="1017"
     id="namedview3715"
     showgrid="false"
     showguides="false"
     inkscape:zoom="1.6523438"
     inkscape:cx="157.65485"
     inkscape:cy="256.96746"
     inkscape:window-x="-8"
     inkscape:window-y="-8"
     inkscape:window-maximized="1"
     inkscape:current-layer="svg3713" />
  <path
     style="fill:#000000;fill-opacity:1;stroke:none;stroke-width:1px;stroke-linecap:butt;stroke-linejoin:miter;stroke-opacity:1"
     d="m 160.98345,30.865248 c -4.40552,10.231075 17.14643,16.140611 18.15603,27.234043 0.60531,6.651084 -11.49882,17.550827 -11.49882,17.550827 0,0 38.52844,-2.984296 43.57447,-16.340425 4.33744,-11.480601 -4.935,-27.457435 -15.73522,-33.286052 -10.21843,-5.514635 -29.90417,-5.823209 -34.49646,4.841607 z"
     id="path3723"
     inkscape:connector-curvature="0"
     sodipodi:nodetypes="sscsss" />
  <path
     style="fill:#000000;stroke:none;stroke-width:1px;stroke-linecap:butt;stroke-linejoin:miter;stroke-opacity:1;fill-opacity:1"
     d="m 297.15366,18.761229 c -4.98173,5.473553 4.06208,7.862763 -6.65721,18.761229 -9.55456,9.714268 -22.99763,19.366431 -22.99763,19.366431 0,0 26.96633,-6.196949 39.94326,-10.893617 9.59212,-3.471621 24.90302,-2.939909 27.83924,-12.70922 2.73898,-9.113047 -6.05871,-21.333849 -15.13002,-24.2080378 -7.9292,-2.5123195 -17.399,3.5318518 -22.99764,9.6832148 z"
     id="path4530"
     inkscape:connector-curvature="0"
     sodipodi:nodetypes="sscssss" />
  <path
     style="fill:#000000;stroke:none;stroke-width:1px;stroke-linecap:butt;stroke-linejoin:miter;stroke-opacity:1;fill-opacity:1"
     d="m 128.9078,96.22695 c 0,0 5.17271,20.05257 15.13002,23.60284 8.25453,2.94314 48.34018,-9.9351 70.20331,-12.10403 16.91573,-1.67812 71.56738,-12.227143 88.96454,-13.314412 8.74153,-0.546319 16.16247,3.790859 24.81324,2.420803 8.19837,-1.298408 22.89525,-2.608309 22.39244,-10.893617 C 349.62299,72.947876 326.50113,73.671701 313.49409,73.229314 284.12122,72.230302 210.24729,95.275655 195.47991,98.042553 173.63633,102.13529 128.9078,96.22695 128.9078,96.22695 Z"
     id="path4532"
     inkscape:connector-curvature="0"
     sodipodi:nodetypes="csssssssc" />
  <path
     style="fill:#000000;fill-opacity:1;stroke:none;stroke-width:1px;stroke-linecap:butt;stroke-linejoin:miter;stroke-opacity:1"
     d="m 204.55792,104.09456 c 0,0 7.35698,11.74811 6.65721,18.15603 -1.77902,16.29089 -3.67243,28.99206 -4.23641,43.57447 -0.39769,10.28271 -3.42577,21.39723 0.6052,30.86525 1.45283,3.41243 4.15927,7.80781 7.86762,7.86761 4.42379,0.0713 7.64103,-5.15316 9.68321,-9.07801 0.29962,-22.72262 6.64911,-46.88265 10.28842,-72.01892 -2.66998,-9.36451 -9.50029,-19.38281 -18.76123,-22.39243 -3.95523,-1.285369 -12.10402,3.026 -12.10402,3.026 z"
     id="path4534"
     inkscape:connector-curvature="0"
     sodipodi:nodetypes="cssssccsc" />
  <path
     style="fill:#000000;fill-opacity:1;stroke:none;stroke-width:1px;stroke-linecap:butt;stroke-linejoin:miter;stroke-opacity:1"
     d="m 133.14421,153.72104 c 0,0 12.35976,16.04841 21.78723,16.34043 9.41757,0.29172 44.28166,-15.0209 67.17731,-19.36643 18.91287,-3.58961 38.70966,-1.23644 57.49409,-5.44681 7.53447,-1.68879 21.33537,-0.15943 21.78723,-7.86762 0.50156,-8.55602 -14.49999,-10.38212 -22.99764,-11.49881 -7.96297,-1.04643 -15.76986,3.06724 -23.60283,4.8416 -26.96106,6.10734 -53.07752,16.4136 -80.49173,19.97164 -13.40523,1.73984 -41.15366,3.026 -41.15366,3.026 z"
     id="path4536"
     inkscape:connector-curvature="0"
     sodipodi:nodetypes="csssssssc" />
  <path
     style="fill:#000000;stroke:none;stroke-width:1px;stroke-linecap:butt;stroke-linejoin:miter;stroke-opacity:1;fill-opacity:1"
     d="m 112.56738,199.71631 c 0,0 5.93341,13.65138 15.13002,14.52482 13.57441,1.28922 56.15605,-13.31339 84.72813,-16.94562 25.25439,-3.21047 51.20531,0.30101 76.25532,-4.23641 9.98258,-1.80819 27.84758,0.99554 29.04965,-9.07801 1.11502,-9.3441 -14.98373,-12.66269 -24.20804,-14.52483 0,0 -61.8971,14.17993 -93.20095,19.36644 -29.07947,4.81797 -87.75413,10.89361 -87.75413,10.89361 z"
     id="path4538"
     inkscape:connector-curvature="0"
     sodipodi:nodetypes="cssssssc" />
  <path
     style="fill:#000000;stroke:none;stroke-width:1px;stroke-linecap:butt;stroke-linejoin:miter;stroke-opacity:1;fill-opacity:1"
     d="m 109.54137,236.63357 c 0,0 12.21135,14.08682 21.78723,16.34043 7.4177,1.74569 62.4257,-16.6967 81.09693,-23.60284 7.87423,-2.91253 22.70666,-6.40385 20.57683,-14.52482 -2.52067,-9.61123 -19.94889,-5.15301 -29.65484,-3.02601 -13.95773,3.05875 -20.67021,12.73587 -33.89126,18.15603 -7.69605,3.15512 -20.79427,6.24613 -29.04964,7.26241 -10.21133,1.25707 -30.86525,-0.6052 -30.86525,-0.6052 z"
     id="path4548"
     inkscape:connector-curvature="0"
     sodipodi:nodetypes="cssssssc" />
  <path
     style="fill:#000000;stroke:none;stroke-width:1px;stroke-linecap:butt;stroke-linejoin:miter;stroke-opacity:1;fill-opacity:1"
     d="m 39.338062,287.47045 c 0,0 18.130723,19.63725 26.02364,26.02364 6.808879,5.50927 13.772253,13.65492 22.392435,12.10402 7.859365,-1.41402 21.526353,-22.51608 35.101653,-29.04965 21.33785,-10.26956 40.62774,-17.04605 61.7305,-22.39243 20.13365,-5.10085 42.16079,-1.51513 61.73049,-8.47281 5.118,-1.81962 13.90641,-3.04099 13.91963,-8.47282 0.0225,-9.23796 -14.36489,-14.55229 -23.60284,-14.52482 -25.41972,0.0756 -92.48334,34.52145 -139.801419,48.41607 -6.572534,1.92998 -14.940977,4.00883 -21.787234,4.23641 -10.640233,0.35369 -35.706855,-7.86761 -35.706855,-7.86761 z"
     id="path4550"
     inkscape:connector-curvature="0"
     sodipodi:nodetypes="csssssssssc" />
  <path
     style="fill:#000000;stroke:none;stroke-width:1px;stroke-linecap:butt;stroke-linejoin:miter;stroke-opacity:1;fill-opacity:1"
     d="m 164.00946,241.47518 c 0,0 4.53844,51.59601 5.4468,77.46572 0.26193,7.45955 2.22556,15.2678 0,22.39243 -0.95106,3.0446 -5.14849,4.69191 -5.4468,7.86762 -0.37163,3.95627 1.36458,8.96994 4.8416,10.89361 1.24818,0.69056 3.1814,0.3549 4.23641,-0.6052 13.35223,-23.8803 14.65603,-60.12961 22.99764,-95.62175 -4.62591,-12.19142 -32.07565,-22.39243 -32.07565,-22.39243 z"
     id="path4552"
     inkscape:connector-curvature="0"
     sodipodi:nodetypes="caassccc" />
  <path
     style="fill:#000000;stroke:none;stroke-width:1px;stroke-linecap:butt;stroke-linejoin:miter;stroke-opacity:1;fill-opacity:1"
     d="m 128.9078,314.09929 c 0,0 -3.93638,19.65265 -8.47281,28.44445 -3.75636,7.27999 -15.13003,19.36643 -15.13003,19.36643 0,0 14.85313,-2.32806 21.18204,-6.05201 7.6225,-4.4851 18.02077,-9.94815 18.76123,-18.76123 0.78732,-9.37089 -16.34043,-22.99764 -16.34043,-22.99764 z"
     id="path4554"
     inkscape:connector-curvature="0"
     sodipodi:nodetypes="cscssc" />
  <path
     style="fill:#000000;fill-opacity:1;stroke:none;stroke-width:1px;stroke-linecap:butt;stroke-linejoin:miter;stroke-opacity:1"
     d="m 223.92435,299.57447 c 0,0 -6.3969,26.5191 -9.07801,35.70685 7.53116,1.29817 18.89961,-1.33335 25.41844,-7.26241 3.68591,-3.35244 7.16055,-9.24117 5.4468,-13.91962 -2.91842,-7.96711 -21.78723,-14.52482 -21.78723,-14.52482 z"
     id="path4556"
     inkscape:connector-curvature="0"
     sodipodi:nodetypes="cccsc" />
  <path
     style="fill:#000000;stroke:none;stroke-width:1px;stroke-linecap:butt;stroke-linejoin:miter;stroke-opacity:1;fill-opacity:1"
     d="m 61.730496,383.6974 c 0,0 5.334251,16.70007 11.498818,22.39243 5.780219,5.33745 14.010005,10.26716 21.787234,9.07802 12.158412,-13.12278 21.228592,-20.88272 33.891252,-28.44445 15.47027,-9.23835 32.77257,-15.51564 50.23168,-19.97163 8.07355,-2.06057 17.70199,-7.36861 24.81324,-3.026 3.48617,2.12889 5.26272,7.54506 4.23641,11.49882 -1.68976,6.50967 -16.23183,11.57419 -24.20804,17.55082 -6.32922,4.74252 -18.76123,14.52483 -18.76123,14.52483 0,0 20.61226,-1.48515 30.26005,-4.84161 14.41639,-5.01546 26.95322,-14.37707 39.94326,-22.39244 C 242.47047,375.71773 256,366.14657 256,366.14657 c -0.0263,-5.73429 -5.3138,-11.99218 -10.89362,-13.31442 -13.8124,-3.2731 -61.58132,7.83202 -91.99054,13.91962 -22.02085,4.40834 -43.10561,13.33752 -65.361703,16.34043 -8.598974,1.16022 -26.023641,0.6052 -26.023641,0.6052 z"
     id="path4558"
     inkscape:connector-curvature="0"
     sodipodi:nodetypes="cscssssscssssssc" />
  <path
     style="fill:#000000;fill-opacity:1;stroke:none;stroke-width:1px;stroke-linecap:butt;stroke-linejoin:miter;stroke-opacity:1"
     d="m 150.69504,392.17021 c 0,0 10.19302,24.91741 11.49881,38.12766 1.03665,10.48742 -4.35511,21.01607 -3.026,31.47045 0.89339,7.02713 3.24666,14.13618 7.26241,19.97163 2.27004,3.29869 5.10044,8.32953 9.07801,7.86762 4.44932,-0.51669 6.27629,-6.70661 7.86762,-10.89362 5.69089,-14.97348 3.00954,-31.89753 4.8416,-47.81088 0.72118,-6.26421 3.91807,-12.63598 2.42081,-18.76123 -1.3421,-5.49049 -4.22136,-12.46538 -9.68322,-13.91962 -9.81352,-2.61288 -30.26004,-6.05201 -30.26004,-6.05201 z"
     id="path4560"
     inkscape:connector-curvature="0"
     sodipodi:nodetypes="cssssssssc" />
  <path
     style="fill:#000000;stroke:none;stroke-width:1px;stroke-linecap:butt;stroke-linejoin:miter;stroke-opacity:1;fill-opacity:1"
     d="m 309.86288,207.58392 c 0,0 -1.00855,26.08098 -5.4468,38.12766 -4.04374,10.97587 -18.76123,29.65485 -18.76123,29.65485 0,0 27.83853,-17.4827 40.54846,-27.83924 5.64086,-4.59639 14.35812,-7.98512 15.73522,-15.13003 1.29866,-6.7379 -3.21924,-14.34695 -8.47281,-18.76123 -6.21841,-5.22498 -23.60284,-6.05201 -23.60284,-6.05201 z"
     id="path4562"
     inkscape:connector-curvature="0"
     sodipodi:nodetypes="cscsssc" />
  <path
     style="fill:#000000;stroke:none;stroke-width:1px;stroke-linecap:butt;stroke-linejoin:miter;stroke-opacity:1;fill-opacity:1"
     d="m 242.68558,201.53191 17.55083,26.02365 c 0,0 26.66044,87.85872 47.81087,128.3026 12.29229,23.50533 28.21827,45.14462 45.39007,65.3617 17.45551,20.5511 36.63635,39.96239 58.09929,56.28369 8.56503,6.5132 27.83925,16.34042 27.83925,16.34042 0,0 2.9448,-11.66846 2.4208,-17.55083 -0.80945,-9.08675 -8.3967,-11.46945 -7.86761,-20.57683 1.10179,-18.96525 0.6052,-53.86288 0.6052,-53.86288 0,0 -16.41416,39.7486 -23.60284,41.75886 -6.63218,1.85464 -41.91285,-31.13642 -58.70449,-50.83688 -17.39475,-20.40805 -30.68009,-44.25162 -42.36407,-68.3877 -13.1796,-27.22565 -22.96185,-56.13618 -30.86524,-85.33334 -2.62601,-9.70117 2.65598,-23.70897 -5.44681,-29.65484 -5.28409,-3.87749 -12.84484,-13.11106 -21.18204,-13.31442 -3.70223,-0.0903 -9.68321,5.4468 -9.68321,5.4468 z"
     id="path4564"
     inkscape:connector-curvature="0"
     sodipodi:nodetypes="ccssscsscssssssc" />
  <path
     style="fill:#000000;stroke:none;stroke-width:1px;stroke-linecap:butt;stroke-linejoin:miter;stroke-opacity:1;fill-opacity:1"
     d="m 352.22695,265.68322 c 0,0 -0.35723,24.75985 -4.23641,36.31205 -4.30131,12.80932 -35.23501,48.06856 -56.28368,68.99291 -12.31143,12.23871 -40.54847,32.68085 -40.54847,32.68085 0,0 24.44244,0.46056 33.89126,-6.05201 13.10617,-9.03338 36.13887,-23.89365 48.41607,-41.15366 9.1284,-12.83324 35.21314,-43.43377 36.31206,-55.07329 1.29121,-13.67634 -17.55083,-35.70685 -17.55083,-35.70685 z"
     id="path4566"
     inkscape:connector-curvature="0"
     sodipodi:nodetypes="csscsssc" />
</svg>
