<?xml version="1.0" encoding="UTF-8" standalone="no"?>
<!-- Created with Inkscape (http://www.inkscape.org/) -->

<svg
   xmlns:dc="http://purl.org/dc/elements/1.1/"
   xmlns:cc="http://creativecommons.org/ns#"
   xmlns:rdf="http://www.w3.org/1999/02/22-rdf-syntax-ns#"
   xmlns:svg="http://www.w3.org/2000/svg"
   xmlns="http://www.w3.org/2000/svg"
   xmlns:sodipodi="http://sodipodi.sourceforge.net/DTD/sodipodi-0.dtd"
   xmlns:inkscape="http://www.inkscape.org/namespaces/inkscape"
   version="1.1"
   id="svg1410"
   width="512"
   height="512"
   viewBox="0 0 512 512"
   sodipodi:docname="U+6689.svg"
   inkscape:version="0.92.4 (5da689c313, 2019-01-14)">
  <metadata
     id="metadata1416">
    <rdf:RDF>
      <cc:Work
         rdf:about="">
        <dc:format>image/svg+xml</dc:format>
        <dc:type
           rdf:resource="http://purl.org/dc/dcmitype/StillImage" />
        <dc:title></dc:title>
      </cc:Work>
    </rdf:RDF>
  </metadata>
  <defs
     id="defs1414" />
  <sodipodi:namedview
     pagecolor="#ffffff"
     bordercolor="#666666"
     borderopacity="1"
     objecttolerance="10"
     gridtolerance="10"
     guidetolerance="10"
     inkscape:pageopacity="0"
     inkscape:pageshadow="2"
     inkscape:window-width="1920"
     inkscape:window-height="1017"
     id="namedview1412"
     showgrid="false"
     inkscape:zoom="0.921875"
     inkscape:cx="75.740142"
     inkscape:cy="275.37578"
     inkscape:window-x="-8"
     inkscape:window-y="-8"
     inkscape:window-maximized="1"
     inkscape:current-layer="svg1410" />
  <path
     style="fill:#000000;stroke:none;stroke-width:1px;stroke-linecap:butt;stroke-linejoin:miter;stroke-opacity:1;fill-opacity:1"
     d="m 41.220339,144.27119 c 0,0 16.680719,8.53211 19.525424,16.27118 8.615784,23.43939 3.431261,49.87536 3.254237,74.84746 -0.133505,18.83305 -5.2592,37.68028 -3.254237,56.40678 0.719108,6.71652 -1.314287,19.04803 5.423729,19.52542 6.298966,0.44628 7.59322,-22.77966 7.59322,-22.77966 0,0 1.162032,-100.11517 7.59322,-130.16949 0,0 -29.626016,-31.76259 -43.38983,-26.0339 -3.354866,1.39634 0.146043,10.04966 3.254237,11.93221 z"
     id="path1420"
     inkscape:connector-curvature="0"
     sodipodi:nodetypes="sssssccss" />
  <path
     style="fill:#000000;fill-opacity:1;stroke:#000000;stroke-width:1px;stroke-linecap:butt;stroke-linejoin:miter;stroke-opacity:1"
     d="m 73.762712,113.8983 c -9.872757,1.59561 4.483601,23.29355 14.101695,26.03391 14.956983,4.26149 37.641633,-26.92912 49.898303,-17.35594 -8.09585,64.51213 -10.43335,133.63526 -13.01695,208.27119 -2.47879,3.59775 -11.49275,-3.23635 -10.84745,1.08475 1.8036,12.07754 5.05359,30.85471 14.10169,40.13559 3.04988,3.12834 11.47702,9.76896 11.9322,5.42373 2.74953,-26.24756 -1.13812,-86.17772 2.16949,-129.08475 2.44072,-31.66152 13.01695,-94.37288 13.01695,-94.37288 0,0 13.50061,-18.48659 10.84746,-28.20339 -3.52526,-12.91078 -18.43653,-28.042161 -31.45763,-24.94915 -21.24903,5.04746 -40.021167,9.66749 -60.745758,13.01694 z"
     id="path1968"
     inkscape:connector-curvature="0"
     sodipodi:nodetypes="ssccsssscsss" />
  <path
     style="fill:#000000;stroke:none;stroke-width:1px;stroke-linecap:butt;stroke-linejoin:miter;stroke-opacity:1;fill-opacity:1"
     d="m 84.61017,216.94915 c -4.243291,7.98173 17.41776,22.3551 24.94916,17.35594 16.03583,-10.64421 13.2985,-11.73255 32.54236,-27.11865 9.73811,-7.78594 -23.42147,9.32842 -35.79661,10.84746 -7.186731,0.88216 -18.296038,-7.4781 -21.69491,-1.08475 z"
     id="path1970"
     inkscape:connector-curvature="0"
     sodipodi:nodetypes="sssss" />
  <path
     style="fill:#000000;stroke:none;stroke-width:1px;stroke-linecap:butt;stroke-linejoin:miter;stroke-opacity:1;fill-opacity:1"
     d="m 35.79661,297.22034 c 0,0 -4.619319,8.96981 -1.234063,18.20048 3.385255,9.23067 8.266611,18.7222 14.251012,19.76562 7.705957,1.3436 25.895108,-20.82594 32.542373,-24.94915 23.400978,-14.51533 65.084748,-37.9661 65.084748,-37.9661 0,0 -63.06646,20.51439 -96.542375,27.11864 -4.315651,0.85141 -14.101695,-2.16949 -14.101695,-2.16949 z"
     id="path1972"
     inkscape:connector-curvature="0"
     sodipodi:nodetypes="cssscsc" />
  <path
     style="fill:#000000;stroke:none;stroke-width:1px;stroke-linecap:butt;stroke-linejoin:miter;stroke-opacity:1;fill-opacity:1"
     d="m 231.05085,70.508474 c 0,0 6.46625,23.966813 4.33898,35.796606 -2.23248,12.41485 -13.18584,21.72238 -17.35593,33.62712 -1.82855,5.22014 -5.54556,11.23697 -3.25424,16.27119 2.41526,5.30653 12.87645,14.03117 15.18644,8.67797 13.32538,-30.88033 16.05043,-45.01401 23.86441,-66.169496 1.77174,-4.796794 0.61009,-10.89433 -2.16949,-15.18644 -4.41683,-6.82027 -18.28708,-20.803329 -20.61017,-13.01695 z"
     id="path1974"
     inkscape:connector-curvature="0"
     sodipodi:nodetypes="ssssssss" />
  <path
     style="fill:#000000;fill-opacity:1;stroke:none;stroke-width:1px;stroke-linecap:butt;stroke-linejoin:miter;stroke-opacity:1"
     d="m 242.98305,92.20339 c -10.7563,2.372801 19.43133,14.28603 30.37288,13.01695 50.05268,-5.80547 110.33166,-15.956382 149.69491,-18.440679 l -4.90593,19.837359 c 32.97493,2.03824 51.18846,-14.541727 50.06146,-23.069251 -0.50165,-3.63244 -8.6297,-3.568825 -19.12163,-11.954549 -8.72784,-6.975771 -7.40962,-4.260058 -26.03389,-1.084745 -29.82774,5.085428 -57.95328,6.35995 -92.20339,9.762711 -29.41217,2.922111 -63.2774,6.508398 -87.86441,11.932204 z"
     id="path1976"
     inkscape:connector-curvature="0"
     sodipodi:nodetypes="sscccssss" />
  <path
     style="fill:#000000;stroke:none;stroke-width:1px;stroke-linecap:butt;stroke-linejoin:miter;stroke-opacity:1;fill-opacity:1"
     d="m 271.18644,141.01695 c -9.25136,0.42279 12.8954,20.24296 21.69492,17.35593 16.94303,-5.55883 36.17207,-7.89221 54.23728,-11.9322 7.96102,-1.78035 22.25664,2.57393 23.86441,-5.42373 1.22606,-6.09887 -9.01112,-11.59903 -15.18644,-10.84746 -23.23665,2.82802 -55.23192,9.50488 -84.61017,10.84746 z"
     id="path1978"
     inkscape:connector-curvature="0"
     sodipodi:nodetypes="ssssss" />
  <path
     style="fill:#000000;stroke:none;stroke-width:1px;stroke-linecap:butt;stroke-linejoin:miter;stroke-opacity:1;fill-opacity:1"
     d="m 247.32203,187.66102 c -5.49933,0.29885 5.31566,9.80971 6.50848,15.18644 4.93619,22.25017 -6.18427,47.13401 2.16949,68.33898 1.40884,3.57617 3.80441,9.32508 7.59322,8.67797 3.83877,-0.65564 4.33476,-6.9531 4.33898,-10.84746 0.0255,-23.49033 -0.47675,-47.08971 -2.16949,-74.84746 -0.39678,-6.50642 -18.44068,-6.50847 -18.44068,-6.50847 z"
     id="path1980"
     inkscape:connector-curvature="0"
     sodipodi:nodetypes="sssssss" />
  <path
     style="fill:#000000;stroke:none;stroke-width:1px;stroke-linecap:butt;stroke-linejoin:miter;stroke-opacity:1;fill-opacity:1"
     d="m 273.35593,182.23729 c 0,0 8.15399,13.52588 14.1017,11.9322 24.58036,-6.58629 50.23884,-12.49548 75.9322,-14.10169 6.14552,-0.38419 13.90947,-3.08457 18.44068,1.08474 5.64445,5.19364 3.14929,21.90089 1.08475,29.28813 -5.96089,21.32897 -8.48931,29.97085 -11.93221,46.64408 -1.22573,5.93598 -14.10169,5.42372 -14.10169,5.42372 0,0 6.44862,10.78762 10.84745,15.18645 2.19942,2.19942 4.58264,6.20557 7.59322,5.42372 7.35776,-1.91081 7.6638,-13.30385 9.76272,-20.61017 3.41781,-11.89737 0.99626,-24.96266 4.33898,-36.88135 2.57782,-9.19139 7.28135,-17.69745 11.9322,-26.0339 1.9055,-3.41553 6.8486,-5.86642 6.50848,-9.76271 -0.95633,-10.95542 -12.36885,-20.32169 -22.77966,-23.86441 -18.0093,-6.12842 -37.58164,5.93815 -56.40678,8.67797 -18.41951,2.68079 -55.32204,7.59322 -55.32204,7.59322 z"
     id="path1982"
     inkscape:connector-curvature="0"
     sodipodi:nodetypes="cssssscssasssssc" />
  <path
     style="fill:#000000;stroke:none;stroke-width:1px;stroke-linecap:butt;stroke-linejoin:miter;stroke-opacity:1;fill-opacity:1"
     d="m 285.28814,229.9661 c 0.0625,7.66153 16.20865,3.55816 23.8644,3.25424 21.09138,-0.83729 36.43686,0.47739 48.81356,-11.9322 4.36321,-4.37481 -11.30147,-7.74136 -17.35593,-6.50848 -11.81378,2.40566 -23.34267,4.27252 -34.71186,7.59322 -7.02784,2.05268 -20.6699,0.27199 -20.61017,7.59322 z"
     id="path1984"
     inkscape:connector-curvature="0"
     sodipodi:nodetypes="ssssss" />
  <path
     style="fill:#000000;stroke:none;stroke-width:1px;stroke-linecap:butt;stroke-linejoin:miter;stroke-opacity:1;fill-opacity:1"
     d="m 239.72881,275.52542 c -1.74619,7.83623 18.16992,12.46403 26.0339,10.84746 25.56196,-5.25465 44.38082,-10.50447 70.50848,-11.9322 12.68285,-0.69305 26.71777,0.47627 37.9661,3.25424 5.66027,1.3979 11.32102,-9.98962 8.67796,-15.18645 -5.93728,-11.67397 -25.9565,-4.60561 -39.05084,-4.33898 -21.57564,0.43932 -42.72798,6.12923 -64,9.76271 -13.42147,2.29252 -37.17415,-5.69667 -40.1356,7.59322 z"
     id="path1986"
     inkscape:connector-curvature="0"
     sodipodi:nodetypes="ssssssss" />
  <path
     style="fill:#000000;stroke:none;stroke-width:1px;stroke-linecap:butt;stroke-linejoin:miter;stroke-opacity:1;fill-opacity:1"
     d="m 167.05084,330.84746 c -6.45843,5.84111 4.48255,19.96463 13.01696,21.69491 23.19717,4.70303 44.10204,-17.85999 67.25423,-22.77966 42.26796,-8.98163 87.21749,-3.64547 130.1695,-7.59322 22.31817,-2.05128 42.67711,9.30778 62.91525,16.27119 6.38739,2.19773 16.35205,0.53936 19.52542,-5.42373 2.14866,-4.03756 -1.24886,-9.64504 -4.33898,-13.01695 -7.98739,-8.71575 -20.72027,-14.12429 -32.54237,-14.1017 -45.88185,0.0877 -93.5858,-0.13933 -139.93221,5.42373 -25.27609,3.03394 -49.84814,10.37813 -74.84745,15.18644 -15.87939,3.05421 -41.22035,4.33899 -41.22035,4.33899 z"
     id="path1988"
     inkscape:connector-curvature="0"
     sodipodi:nodetypes="sssssssssss" />
  <path
     style="fill:#000000;stroke:none;stroke-width:1px;stroke-linecap:butt;stroke-linejoin:miter;stroke-opacity:1;fill-opacity:1"
     d="m 306.98305,108.47458 c 0,0 9.13519,13.03785 10.84746,20.61017 0.11927,60.88961 -4.8546,109.17969 -6.50848,163.79661 -1.57631,52.05523 -1.44671,111.03249 -3.25423,156.20339 -0.1945,4.8607 -9.2353,6.01154 -9.76272,10.84745 -1.35178,12.39453 5.98973,31.88997 18.44068,32.54238 3.10618,0.16276 4.42388,-4.64786 5.42373,-7.59322 0.82691,-57.78422 5.08688,-126.53245 6.50848,-189.83051 0.7632,-33.98205 0.14921,-67.98835 1.08474,-101.9661 0.44827,-16.28108 -0.91522,-32.82109 2.16949,-48.81356 1.4511,-7.52312 9.1593,-14.1949 7.59322,-21.69492 -1.412,-6.76216 -7.69117,-12.61237 -14.10169,-15.18644 -5.71408,-2.29442 -18.44068,1.08475 -18.44068,1.08475 z"
     id="path1990"
     inkscape:connector-curvature="0"
     sodipodi:nodetypes="cccssscsssssc" />
</svg>
