<?xml version="1.0" encoding="UTF-8" standalone="no"?>
<!-- Created with Inkscape (http://www.inkscape.org/) -->

<svg
   xmlns:dc="http://purl.org/dc/elements/1.1/"
   xmlns:cc="http://creativecommons.org/ns#"
   xmlns:rdf="http://www.w3.org/1999/02/22-rdf-syntax-ns#"
   xmlns:svg="http://www.w3.org/2000/svg"
   xmlns="http://www.w3.org/2000/svg"
   xmlns:sodipodi="http://sodipodi.sourceforge.net/DTD/sodipodi-0.dtd"
   xmlns:inkscape="http://www.inkscape.org/namespaces/inkscape"
   version="1.1"
   id="svg815"
   width="512"
   height="512"
   viewBox="0 0 512 512"
   sodipodi:docname="U+6717.svg"
   inkscape:version="0.92.4 (5da689c313, 2019-01-14)">
  <metadata
     id="metadata821">
    <rdf:RDF>
      <cc:Work
         rdf:about="">
        <dc:format>image/svg+xml</dc:format>
        <dc:type
           rdf:resource="http://purl.org/dc/dcmitype/StillImage" />
        <dc:title></dc:title>
      </cc:Work>
    </rdf:RDF>
  </metadata>
  <defs
     id="defs819" />
  <sodipodi:namedview
     pagecolor="#ffffff"
     bordercolor="#666666"
     borderopacity="1"
     objecttolerance="10"
     gridtolerance="10"
     guidetolerance="10"
     inkscape:pageopacity="0"
     inkscape:pageshadow="2"
     inkscape:window-width="1920"
     inkscape:window-height="1017"
     id="namedview817"
     showgrid="false"
     inkscape:zoom="1.6523438"
     inkscape:cx="256"
     inkscape:cy="256"
     inkscape:window-x="-8"
     inkscape:window-y="-8"
     inkscape:window-maximized="1"
     inkscape:current-layer="svg815" />
  <path
     style="fill:#000000;stroke:none;stroke-width:1px;stroke-linecap:butt;stroke-linejoin:miter;stroke-opacity:1;fill-opacity:1"
     d="m 128.3026,75.044917 c 5.82001,12.145546 19.39971,13.32373 26.62884,22.392435 5.23027,6.561188 3.68106,19.344888 11.49882,22.392438 3.80585,1.48361 8.75508,-1.21028 11.49882,-4.23641 6.44176,-7.10477 11.22528,-19.105993 7.26241,-27.839243 -4.10075,-9.037105 -16.94802,-11.131041 -26.62884,-13.314421 -9.8415,-2.219619 -26.89943,-8.907321 -30.26005,0.605201 z"
     id="path825"
     inkscape:connector-curvature="0"
     sodipodi:nodetypes="ccssssc" />
  <path
     style="fill:#000000;stroke:none;stroke-width:1px;stroke-linecap:butt;stroke-linejoin:miter;stroke-opacity:1;fill-opacity:1"
     d="m 90.174941,153.11584 c -3.848482,0.72921 -7.09322,5.79059 -6.657211,9.68321 0.397281,3.54685 4.34604,7.84253 7.867613,7.26242 18.205827,-2.99907 32.665397,-4.94833 49.021277,-7.26242 17.93811,-2.53795 53.86288,-7.26241 53.86288,-7.26241 0,0 -4.86982,33.40818 -6.05201,50.23168 -1.3861,19.72537 -1.30211,39.6694 -1.2104,59.30969 0.0131,2.80254 -4.65629,4.49148 -4.2364,7.26242 0.49201,3.24692 4.20182,5.46669 7.26241,6.65721 1.50408,0.58506 4.35126,1.53757 4.8416,0 3.08092,-9.66102 4.44409,-23.70872 5.44681,-35.70686 1.09219,-13.06868 0.6052,-39.33806 0.6052,-39.33806 0,0 4.86508,-26.39458 13.31442,-37.52246 4.22951,-5.57031 16.94563,-13.91962 16.94563,-13.91962 0,0 -6.44426,-15.87085 -13.31442,-19.97163 -5.5674,-3.32317 -18.55035,-8.24783 -19.36643,-1.81561 -0.85812,6.7636 -4.28294,10.57394 -9.07801,11.49882 -16.76857,3.23433 -32.65534,4.25337 -49.02128,6.05201 -16.72081,1.83764 -33.92196,1.75125 -50.231679,4.84161 z"
     id="path827"
     inkscape:connector-curvature="0"
     sodipodi:nodetypes="sssscsssssscscsssss" />
  <path
     style="fill:#000000;stroke:none;stroke-width:1px;stroke-linecap:butt;stroke-linejoin:miter;stroke-opacity:1;fill-opacity:1"
     d="m 56.888889,132.53901 c 2.582738,11.98624 13.561521,25.05271 16.945626,38.73286 8.014258,32.39742 7.425651,66.48459 7.262412,99.85815 -0.107919,22.06353 -0.434559,44.47997 -5.446809,65.96691 -1.872228,8.02603 -3.774342,16.68943 -9.078014,22.99763 -5.4772,6.5146 -16.776044,6.43491 -21.787234,13.31442 -3.543447,4.86455 -5.949025,11.78136 -4.236407,17.55083 1.421333,4.78819 8.541468,7.60633 13.314421,9.07802 9.761483,3.00985 32.680852,-9.07802 32.680852,-9.07802 4.106356,-13.2452 16.675204,-13.65829 21.787234,-18.15603 26.1459,-23.00406 70.80851,-55.07328 70.80851,-55.07328 0,0 -59.71818,26.08237 -99.252955,43.57446 C 79.63503,350.57053 90.780142,318.3357 90.780142,318.3357 l 3.026005,-41.75887 c 0,0 -5.496432,-45.78583 -2.420804,-68.3877 2.167898,-15.93124 8.852367,-27.98403 14.524827,-45.99528 1.819,-5.7757 -11.096367,-5.18591 -15.735229,-9.07801 -6.252784,-5.24622 -9.533017,-15.46906 -15.735225,-18.76123 -6.202208,-3.29217 -8.63548,-2.93426 -17.550827,-1.8156 z"
     id="path829"
     inkscape:connector-curvature="0"
     sodipodi:nodetypes="csssssssssccccssszc" />
  <path
     style="fill:#000000;stroke:none;stroke-width:1px;stroke-linecap:butt;stroke-linejoin:miter;stroke-opacity:1;fill-opacity:1"
     d="m 109.54137,208.79433 c -7.10891,5.57879 3.7532,13.67413 9.07802,17.55082 3.96814,2.88898 10.05527,4.44947 14.52482,2.42081 12.90531,-5.85754 24.91699,-9.34646 35.70685,-15.73523 2.41779,-1.43159 4.44008,-5.43954 3.02601,-7.86761 -2.0532,-3.52551 -8.04218,-2.1981 -12.10402,-1.8156 -8.51166,0.80154 -15.66851,5.85588 -24.20804,5.44681 -5.77015,-0.27641 -9.95971,-4.11568 -15.73522,-4.23641 -3.70802,-0.0775 -7.37075,1.94674 -10.28842,4.23641 z"
     id="path831"
     inkscape:connector-curvature="0"
     sodipodi:nodetypes="sssssssss" />
  <path
     style="fill:#000000;stroke:none;stroke-width:1px;stroke-linecap:butt;stroke-linejoin:miter;stroke-opacity:1;fill-opacity:1"
     d="m 87.148936,277.18203 c -0.818342,7.26394 12.08476,10.93006 19.366434,10.28842 18.78466,-1.65526 33.29348,-5.73152 51.44208,-6.05201 10.47298,-0.18494 23.20626,-0.72931 30.26004,-8.47281 1.51886,-1.66737 1.21041,-6.65721 1.21041,-6.65721 0,0 -33.08383,2.02537 -49.62648,3.026 -10.08639,0.6101 -20.28744,0.18631 -30.26005,1.8156 -7.63078,1.24669 -21.526842,-1.63134 -22.392434,6.05201 z"
     id="path833"
     inkscape:connector-curvature="0"
     sodipodi:nodetypes="sssscsss" />
  <path
     style="fill:#000000;stroke:none;stroke-width:1px;stroke-linecap:butt;stroke-linejoin:miter;stroke-opacity:1;fill-opacity:1"
     d="m 167.03546,291.10165 c 0,0 12.10402,26.62885 20.57683,43.57447 2.60385,5.2077 14.7759,9.63941 16.94563,4.23641 2.67004,-6.64885 4.20267,-11.7101 6.65721,-18.15603 2.36142,-6.20139 -0.65819,-15.92479 -6.65721,-18.76123 -12.50037,-5.9104 -37.52246,-10.89362 -37.52246,-10.89362 z"
     id="path835"
     inkscape:connector-curvature="0"
     sodipodi:nodetypes="cssssc" />
  <path
     style="fill:#000000;stroke:none;stroke-width:1px;stroke-linecap:butt;stroke-linejoin:miter;stroke-opacity:1;fill-opacity:1"
     d="m 321.3617,3.0260047 c -2.72861,1.7708166 -2.47856,6.2373989 -4.84161,8.4728133 -1.63848,1.549979 -5.22333,0.928304 -6.052,3.026005 -2.13405,5.402145 3.57068,14.114726 6.052,19.36643 2.3945,5.067943 6.53495,13.284721 12.10403,13.919622 4.6792,0.533452 5.07173,-12.856268 5.4468,-17.550828 0.87872,-10.998597 1.10373,-17.514109 -0.6052,-28.4444442 -0.62635,-4.0061282 -8.70272,-0.99698054 -12.10402,1.2104019 z"
     id="path837"
     inkscape:connector-curvature="0"
     sodipodi:nodetypes="ssssssss" />
  <path
     style="fill:#000000;stroke:none;stroke-width:1px;stroke-linecap:butt;stroke-linejoin:miter;stroke-opacity:1;fill-opacity:1"
     d="m 263.86761,153.72104 c 2.03596,19.44288 14.68299,68.38519 12.70922,102.88416 -2.15757,37.71158 -12.93304,74.94369 -26.62884,110.14657 -6.35136,16.32518 -14.88533,31.99867 -25.41844,45.99527 -5.14645,6.83869 -11.02976,9.24798 -18.15603,18.15603 19.18535,-4.0078 35.28159,-22.40855 47.81088,-39.33806 15.14442,-20.46308 20.56684,-47.15298 26.02364,-72.01891 5.6022,-25.52853 6.50897,-50.3128 9.68321,-76.25532 1.95776,-16.00044 3.97064,-34.31305 7.26241,-47.81087 -10.04214,-15.38165 -19.29713,-32.92173 -33.28605,-41.75887 z"
     id="path839"
     inkscape:connector-curvature="0"
     sodipodi:nodetypes="cssscssscc" />
  <path
     style="fill:#000000;stroke:none;stroke-width:1px;stroke-linecap:butt;stroke-linejoin:miter;stroke-opacity:1;fill-opacity:1"
     d="m 279.60284,143.43262 c 0,0 15.6051,22.07037 27.83924,30.86525 15.56313,0.39752 27.90158,-7.06071 39.94326,-14.52482 4.97249,-3.08223 7.74222,-4.875 13.31442,-6.65721 6.79335,-2.17279 15.98688,-4.28161 21.18204,0.6052 5.10078,4.79805 2.87849,10.5886 3.6312,17.55083 3.51303,32.49399 -0.0935,65.38523 1.2104,98.04255 1.19383,29.90083 8.16827,59.72001 6.05201,89.56974 -0.48127,6.78829 1.05144,15.68779 -4.2364,19.97163 -3.762,3.04771 -9.89096,1.40302 -14.52483,0 -4.17691,-1.26467 -10.89361,-7.26241 -10.89361,-7.26241 0,0 9.91784,13.9832 13.31442,21.78723 5.68413,13.05996 3.60419,29.29843 11.49882,41.15367 2.70675,4.06468 6.65427,9.69324 11.49881,9.07801 6.28409,-0.79804 11.78016,-8.80171 11.49882,-15.13002 -1.11088,-24.98765 -4.28852,-51.41725 -5.44681,-76.86052 -1.33078,-29.23223 -0.94541,-57.89937 -1.8156,-87.14894 -0.56419,-18.96423 -4.37835,-38.09015 -1.8156,-56.88889 2.7407,-20.10408 11.74402,-35.04868 18.15603,-58.09929 -1.16452,-7.12859 -7.36976,-12.68636 -12.70922,-17.55082 -3.81075,-3.47174 -8.17209,-7.50539 -13.31442,-7.86762 -8.93175,-0.62917 -16.31818,7.45893 -24.81324,10.28842 -18.56839,6.18467 -36.73001,10.66895 -56.28369,11.49882 -11.03395,0.46828 -33.28605,-2.42081 -33.28605,-2.42081 z"
     id="path841"
     inkscape:connector-curvature="0"
     sodipodi:nodetypes="ccsssssssscssssssscssssc" />
  <path
     style="fill:#000000;stroke:none;stroke-width:1px;stroke-linecap:butt;stroke-linejoin:miter;stroke-opacity:1;fill-opacity:1"
     d="m 297.15366,241.47518 c -4.93344,4.47441 8.95415,10.75998 16.34043,11.49881 9.63931,0.96421 16.85176,-9.61087 24.81324,-15.13002 7.794,-5.40303 12.14026,-7.57012 22.39243,-13.91962 4.8751,-3.0193 -7.59202,-10.52364 -13.31442,-10.89362 -8.854,3.54656 -18.82896,12.24281 -27.23404,16.94563 -8.40508,4.70282 -16.91051,5.97806 -22.99764,11.49882 z"
     id="path843"
     inkscape:connector-curvature="0"
     sodipodi:nodetypes="ccssczc" />
  <path
     style="fill:#000000;stroke:none;stroke-width:1px;stroke-linecap:butt;stroke-linejoin:miter;stroke-opacity:1;fill-opacity:1"
     d="m 273.55083,317.1253 c 0.38174,4.58437 9.18196,1.61008 13.31442,3.6312 4.53051,2.2158 9.68321,10.89363 12.10402,9.07802 2.4208,-1.8156 22.49922,-5.23202 34.49645,-10.28842 5.77481,-2.43387 19.36643,-8.47281 19.36643,-8.47281 4.33974,-3.71554 -5.79185,-12.97207 -11.49882,-12.70922 -12.01183,0.55323 -24.58143,0.93581 -36.31205,4.2364 -11.1217,3.12926 -32.42919,3.01113 -31.47045,14.52483 z"
     id="path845"
     inkscape:connector-curvature="0"
     sodipodi:nodetypes="ssssssss" />
</svg>
