<?xml version="1.0" encoding="UTF-8" standalone="no"?>
<!-- Created with Inkscape (http://www.inkscape.org/) -->

<svg
   xmlns:dc="http://purl.org/dc/elements/1.1/"
   xmlns:cc="http://creativecommons.org/ns#"
   xmlns:rdf="http://www.w3.org/1999/02/22-rdf-syntax-ns#"
   xmlns:svg="http://www.w3.org/2000/svg"
   xmlns="http://www.w3.org/2000/svg"
   xmlns:sodipodi="http://sodipodi.sourceforge.net/DTD/sodipodi-0.dtd"
   xmlns:inkscape="http://www.inkscape.org/namespaces/inkscape"
   version="1.1"
   id="svg815"
   width="533"
   height="522"
   viewBox="0 0 533 522"
   sodipodi:docname="U+6BCF.svg"
   inkscape:version="0.92.4 (5da689c313, 2019-01-14)">
  <metadata
     id="metadata821">
    <rdf:RDF>
      <cc:Work
         rdf:about="">
        <dc:format>image/svg+xml</dc:format>
        <dc:type
           rdf:resource="http://purl.org/dc/dcmitype/StillImage" />
        <dc:title></dc:title>
      </cc:Work>
    </rdf:RDF>
  </metadata>
  <defs
     id="defs819" />
  <sodipodi:namedview
     pagecolor="#ffffff"
     bordercolor="#666666"
     borderopacity="1"
     objecttolerance="10"
     gridtolerance="10"
     guidetolerance="10"
     inkscape:pageopacity="0"
     inkscape:pageshadow="2"
     inkscape:window-width="1366"
     inkscape:window-height="705"
     id="namedview817"
     showgrid="false"
     inkscape:zoom="1.0229885"
     inkscape:cx="266.5"
     inkscape:cy="261"
     inkscape:window-x="-8"
     inkscape:window-y="-8"
     inkscape:window-maximized="1"
     inkscape:current-layer="svg815" />
  <path
     style="fill:#000000;stroke:none;stroke-width:1px;stroke-linecap:butt;stroke-linejoin:miter;stroke-opacity:1;fill-opacity:1"
     d="m 232.65169,8.7977528 c 0,0 -12.65787,24.1413062 -6.8427,34.2134832 6.61072,11.450107 20.88604,17.849771 13.92863,43.815165 -5.55661,20.737569 -19.89942,32.220219 -42.27695,45.139889 -22.37753,12.91967 14.66293,4.88764 14.66293,4.88764 0,0 19.79839,-11.00064 46.92135,-38.123593 C 263.90536,93.869926 262.00278,85.002367 261,78.202247 257.35425,53.479367 232.65169,8.7977528 232.65169,8.7977528 Z"
     id="path827"
     inkscape:connector-curvature="0"
     sodipodi:nodetypes="csczcssc" />
  <path
     style="fill:#000000;stroke:none;stroke-width:1px;stroke-linecap:butt;stroke-linejoin:miter;stroke-opacity:1;fill-opacity:1"
     d="m 188.66293,128.05618 c 0,0 4.26957,25.2189 10.7528,23.46067 39.6861,-10.76272 67.16712,-25.51206 98.73033,-33.23595 28.66064,-7.0136 45.77194,-8.08616 75.26967,-8.79776 20.88855,-0.50391 22.55616,0.41286 67.44944,0.97753 16.81985,0.21156 -7.14282,-42.207695 -23.46067,-38.123591 -15.68646,3.926074 -37.1047,14.657162 -50.83147,17.595505 -46.81634,10.021475 -74.80212,20.058736 -116.32584,32.258426 -19.78475,5.81277 -61.58426,5.86517 -61.58426,5.86517 z"
     id="path829"
     inkscape:connector-curvature="0"
     sodipodi:nodetypes="csssssssc" />
  <path
     style="fill:#000000;stroke:none;stroke-width:1px;stroke-linecap:butt;stroke-linejoin:miter;stroke-opacity:1;fill-opacity:1"
     d="m 266.86517,150.53933 c 0,0 -6.01898,79.86807 -43.98877,152.49438 -7.9443,15.19538 -19.55056,22.48314 -19.55056,22.48314 0,0 -21.98757,-1.34327 -28.34831,3.91012 -8.82187,7.28605 -10.75281,35.191 -10.75281,35.191 0,0 18.24779,1.0535 22.48315,-3.9101 16.7722,-19.65605 31.52167,-33.52547 51.80898,-26.39326 38.6016,13.57078 77.90605,25.11863 117.30337,36.16854 26.86066,7.53371 55.22434,12.08039 81.13484,20.52809 9.21081,3.00304 36.71585,-7.2205 27.37078,-9.77528 -17.52781,-4.7918 -79.66716,-26.47904 -120.23595,-37.14607 -25.15727,-6.61478 -50.76647,-11.38573 -76.24719,-16.61798 -21.70329,-4.45658 -32.29857,-22.57653 -27.37079,-37.14607 14.46144,-42.75692 23.62637,-49.37347 32.25843,-75.26966 3.92367,-11.771 10.27532,-23.84911 8.79775,-36.16854 -1.2669,-10.56295 -14.66292,-28.34831 -14.66292,-28.34831 z"
     id="path4534"
     inkscape:connector-curvature="0"
     sodipodi:nodetypes="cscscssssssssssc" />
  <path
     style="fill:#000000;stroke:none;stroke-width:1px;stroke-linecap:butt;stroke-linejoin:miter;stroke-opacity:1;fill-opacity:1"
     d="m 272.73034,185.73034 c 0,0 19.7444,17.31713 31.2809,15.64045 25.26736,-3.67227 78.20224,-24.43821 78.20224,-24.43821 0,0 -13.90605,108.64914 -28.34831,161.29214 -10.96767,39.97792 -22.02371,76.56613 -41.05619,110.46067 -9.29291,16.54957 -49.85392,-26.39326 -49.85392,-26.39326 0,0 7.21077,50.08931 16.61797,73.31461 3.29374,8.13186 4.97418,21.4389 13.6854,22.48315 7.7781,0.93239 13.1381,-9.59952 16.61797,-16.61798 14.24614,-28.73263 31.2809,-76.24719 31.2809,-76.24719 0,0 38.63618,-152.12341 42.03371,-167.1573 4.25416,-18.82442 4.47104,-39.00306 15.64045,-54.74157 5.49806,-7.74718 26.39326,-11.73034 26.39326,-11.73034 l -35.19101,-43.01124 c 0,0 -13.45366,14.87827 -30.30337,19.55056 -23.59969,6.54402 -87,17.59551 -87,17.59551 z"
     id="path4538"
     inkscape:connector-curvature="0"
     sodipodi:nodetypes="cscsscssscssccsc" />
  <path
     style="fill:#000000;stroke:none;stroke-width:1px;stroke-linecap:butt;stroke-linejoin:miter;stroke-opacity:1;fill-opacity:1"
     d="m 261.97753,206.25843 c -23.44173,-7.66504 29.10097,50.86099 53.76404,50.83146 8.98877,-0.0108 4.67825,-10.19157 14.66292,-16.61798 7.12389,-4.58514 21.12117,-16.02287 15.64046,-22.48315 -7.36281,-8.67875 -22.84398,5.40337 -34.21349,4.88764 -17.49889,-0.79377 -33.03427,-11.11823 -49.85393,-16.61797 z"
     id="path4540"
     inkscape:connector-curvature="0"
     sodipodi:nodetypes="ssssss" />
  <path
     style="fill:#000000;stroke:none;stroke-width:1px;stroke-linecap:butt;stroke-linejoin:miter;stroke-opacity:1;fill-opacity:1"
     d="m 270.77528,300.10112 c 0,0 0.60938,16.6822 14.66292,21.50562 16.76765,5.75495 30.63431,-8.13907 50.83146,-15.64045 3.72856,-1.38482 6.8427,-9.77528 6.8427,-9.77528 0,0 -7.62135,-3.58771 -11.73034,-3.91011 -13.83166,-1.08525 -27.26218,5.35336 -41.05618,6.8427 -6.48729,0.70043 -19.55056,0.97752 -19.55056,0.97752 z"
     id="path4542"
     inkscape:connector-curvature="0"
     sodipodi:nodetypes="csscssc" />
  <path
     style="fill:#000000;stroke:none;stroke-width:1px;stroke-linecap:butt;stroke-linejoin:miter;stroke-opacity:1;fill-opacity:1"
     d="m 20.52809,291.30337 c 0,0 25.445829,39.76795 45.94382,41.05618 11.456129,0.71998 17.788449,-15.05051 28.348315,-19.55056 38.859015,-16.55965 124.146065,-25.41573 124.146065,-25.41573 0,0 115.4169,-9.28993 173.02247,-5.86517 38.50414,2.28914 69.93583,0.42474 114.37079,17.59551 5.24681,2.0275 14.7912,2.38743 16.61798,-2.93259 4.42055,-12.87367 -13.80757,-29.158 -27.37079,-30.30337 -43.74104,-3.6938 -86.8458,-6.26749 -123.16854,-10.75281 -92.04819,6.71176 -264.91011,28.34831 -264.91011,28.34831 z"
     id="path4544"
     inkscape:connector-curvature="0"
     sodipodi:nodetypes="csscssssccc" />
</svg>
