<?xml version="1.0" encoding="UTF-8" standalone="no"?>
<!-- Created with Inkscape (http://www.inkscape.org/) -->

<svg
   xmlns:dc="http://purl.org/dc/elements/1.1/"
   xmlns:cc="http://creativecommons.org/ns#"
   xmlns:rdf="http://www.w3.org/1999/02/22-rdf-syntax-ns#"
   xmlns:svg="http://www.w3.org/2000/svg"
   xmlns="http://www.w3.org/2000/svg"
   xmlns:sodipodi="http://sodipodi.sourceforge.net/DTD/sodipodi-0.dtd"
   xmlns:inkscape="http://www.inkscape.org/namespaces/inkscape"
   version="1.1"
   id="svg4546"
   width="512"
   height="512"
   viewBox="0 0 512 512"
   sodipodi:docname="U+6BDB.svg"
   inkscape:version="0.92.4 (5da689c313, 2019-01-14)">
  <metadata
     id="metadata4552">
    <rdf:RDF>
      <cc:Work
         rdf:about="">
        <dc:format>image/svg+xml</dc:format>
        <dc:type
           rdf:resource="http://purl.org/dc/dcmitype/StillImage" />
        <dc:title></dc:title>
      </cc:Work>
    </rdf:RDF>
  </metadata>
  <defs
     id="defs4550" />
  <sodipodi:namedview
     pagecolor="#ffffff"
     bordercolor="#666666"
     borderopacity="1"
     objecttolerance="10"
     gridtolerance="10"
     guidetolerance="10"
     inkscape:pageopacity="0"
     inkscape:pageshadow="2"
     inkscape:window-width="1366"
     inkscape:window-height="705"
     id="namedview4548"
     showgrid="false"
     inkscape:zoom="1.3037281"
     inkscape:cx="250.63787"
     inkscape:cy="265.25274"
     inkscape:window-x="-8"
     inkscape:window-y="-8"
     inkscape:window-maximized="1"
     inkscape:current-layer="svg4546" />
  <path
     style="fill:#000000;stroke:none;stroke-width:1px;stroke-linecap:butt;stroke-linejoin:miter;stroke-opacity:1;fill-opacity:1"
     d="m 192.5248,102.4054 c 0,0 21.8537,22.29084 17.64172,32.98234 -7.24104,18.38031 -75.53598,46.48766 -58.29437,46.02186 48.83811,-1.31941 50.41776,-11.69225 105.08326,-33.74937 9.86191,-3.97921 -6.59183,-21.35285 -14.57359,-28.38015 C 230.54451,108.85829 192.5248,102.4054 192.5248,102.4054 Z"
     id="path5099"
     inkscape:connector-curvature="0"
     sodipodi:nodetypes="cssssc" />
  <path
     style="fill:#000000;fill-opacity:1;stroke:none;stroke-width:1px;stroke-linecap:butt;stroke-linejoin:miter;stroke-opacity:1"
     d="m 97.412948,230.49959 c 2.497051,15.21572 23.948312,34.04381 37.584522,26.84609 13.22866,-6.9826 27.44454,-17.1194 43.72077,-24.545 23.98053,-10.94049 55.05549,-9.35138 75.16905,-24.54499 5.38608,-4.0686 -5.72829,-17.76195 -12.2725,-16.10765 -39.1937,9.90769 -82.06295,23.61464 -122.72497,37.58452 -11.18735,3.84354 -22.965234,-8.30227 -21.476872,0.76703 z"
     id="path5101"
     inkscape:connector-curvature="0"
     sodipodi:nodetypes="sssssss" />
  <path
     style="fill:#000000;stroke:none;stroke-width:1px;stroke-linecap:butt;stroke-linejoin:miter;stroke-opacity:1;fill-opacity:1"
     d="m 30.681243,306.43567 c 0,0 28.893511,37.96493 49.857021,38.35155 20.712626,-12.57812 32.179036,-26.01977 49.089996,-33.74937 31.17911,-14.25123 66.08275,-25.5691 99.71403,-32.2153 23.62564,-4.66888 51.32613,2.58895 71.3339,-7.67031 7.07849,-3.62959 -9.90801,-13.03486 -16.87469,-16.87468 -7.11621,-3.92223 -15.65989,-5.71753 -23.77796,-5.36922 -49.20021,16.81621 -94.10179,28.8717 -149.57106,47.55593 -62.840057,23.32617 -79.771237,9.9714 -79.771237,9.9714 z"
     id="path5103"
     inkscape:connector-curvature="0"
     sodipodi:nodetypes="ccssssccc" />
  <path
     style="fill:#000000;stroke:none;stroke-width:1px;stroke-linecap:butt;stroke-linejoin:miter;stroke-opacity:1;fill-opacity:1"
     d="m 171.04793,174.50632 c 0,0 15.98976,44.82107 17.64172,68.26577 1.28401,18.22276 -9.06034,36.42681 -6.13625,54.45921 5.14709,31.74121 6.486,45.36621 15.34062,65.96467 25.91039,16.66782 43.40076,25.49793 67.49874,31.44827 45.85484,5.58402 85.06557,10.5519 127.32716,6.13625 27.0771,-2.82912 61.04929,-0.24537 79.0042,-20.70984 1.15496,-19.90641 7.67031,-60.59545 7.67031,-60.59545 0,0 -19.72014,31.7232 -35.28343,40.65265 -30.01165,17.2192 -67.49376,16.83614 -102.01514,19.17577 -25.28628,1.71374 -51.06652,1.04732 -75.93607,-3.83515 -20.47158,-4.01905 -46.41586,-4.1168 -59.0614,-20.70984 -13.51497,-17.73387 -6.7434,-44.53802 -4.60218,-66.73171 2.56697,-26.60663 20.70984,-77.47014 20.70984,-77.47014 z"
     id="path5107"
     inkscape:connector-curvature="0"
     sodipodi:nodetypes="cssccsccssssscc" />
</svg>
