<?xml version="1.0" encoding="UTF-8" standalone="no"?>
<!-- Created with Inkscape (http://www.inkscape.org/) -->

<svg
   xmlns:dc="http://purl.org/dc/elements/1.1/"
   xmlns:cc="http://creativecommons.org/ns#"
   xmlns:rdf="http://www.w3.org/1999/02/22-rdf-syntax-ns#"
   xmlns:svg="http://www.w3.org/2000/svg"
   xmlns="http://www.w3.org/2000/svg"
   xmlns:sodipodi="http://sodipodi.sourceforge.net/DTD/sodipodi-0.dtd"
   xmlns:inkscape="http://www.inkscape.org/namespaces/inkscape"
   version="1.1"
   id="svg4568"
   width="512"
   height="512"
   viewBox="0 0 512 512"
   sodipodi:docname="U+77E2.svg"
   inkscape:version="0.92.4 (5da689c313, 2019-01-14)">
  <metadata
     id="metadata4574">
    <rdf:RDF>
      <cc:Work
         rdf:about="">
        <dc:format>image/svg+xml</dc:format>
        <dc:type
           rdf:resource="http://purl.org/dc/dcmitype/StillImage" />
        <dc:title></dc:title>
      </cc:Work>
    </rdf:RDF>
  </metadata>
  <defs
     id="defs4572" />
  <sodipodi:namedview
     pagecolor="#ffffff"
     bordercolor="#666666"
     borderopacity="1"
     objecttolerance="10"
     gridtolerance="10"
     guidetolerance="10"
     inkscape:pageopacity="0"
     inkscape:pageshadow="2"
     inkscape:window-width="1920"
     inkscape:window-height="1017"
     id="namedview4570"
     showgrid="false"
     inkscape:zoom="1.3037281"
     inkscape:cx="44.978072"
     inkscape:cy="243.33043"
     inkscape:window-x="-8"
     inkscape:window-y="-8"
     inkscape:window-maximized="1"
     inkscape:current-layer="svg4568" />
  <path
     style="fill:#000000;stroke:none;stroke-width:1px;stroke-linecap:butt;stroke-linejoin:miter;stroke-opacity:1;fill-opacity:1"
     d="m 195.59293,109.30868 c 0,0 11.32359,27.4022 6.13625,47.55593 -2.47487,9.6153 -8.81362,29.48702 -16.87469,35.28342 -4.53368,3.25999 -16.03901,2.8537 -16.10765,8.43735 -0.10537,8.57121 16.12087,9.25489 24.54499,7.67031 9.6535,-1.81583 17.23478,-10.46374 23.01094,-18.40875 7.23232,-9.94793 13.60247,-22.23018 13.03952,-34.51639 -0.48152,-10.50908 -7.44276,-20.00311 -13.80656,-28.38015 -5.36885,-7.06733 -19.9428,-17.64172 -19.9428,-17.64172 z"
     id="path4578"
     inkscape:connector-curvature="0"
     sodipodi:nodetypes="csssssssc" />
  <path
     style="fill:#000000;stroke:none;stroke-width:1px;stroke-linecap:butt;stroke-linejoin:miter;stroke-opacity:1;fill-opacity:1"
     d="m 225.50714,166.83601 c 0,0 23.79415,17.23051 37.58452,21.47687 12.50038,3.84914 26.2245,2.96196 39.11859,0.76704 9.36668,-1.59446 21.76597,-5.3405 26.07905,-13.80657 4.39353,-8.62398 2.12666,-18.73805 -6.13624,-23.77796 -15.1432,-9.23651 -33.84765,9.65385 -51.39109,12.2725 -14.92822,2.22828 -45.25483,3.06812 -45.25483,3.06812 z"
     id="path4580"
     inkscape:connector-curvature="0"
     sodipodi:nodetypes="csssssc" />
  <path
     style="fill:#000000;stroke:none;stroke-width:1px;stroke-linecap:butt;stroke-linejoin:miter;stroke-opacity:1;fill-opacity:1"
     d="m 49.089989,277.28849 c 0,0 11.157907,36.46173 26.846088,41.41968 14.984801,4.73566 28.761833,-12.82499 43.720773,-17.64172 21.54491,-6.9374 43.8148,-11.44999 65.96467,-16.10765 41.67024,-8.76239 83.37449,-18.52234 125.7931,-22.2439 36.67661,-3.21779 73.67458,-1.70691 110.45248,0 11.0297,0.5119 26.94767,12.3147 32.98233,3.06812 4.31606,-6.61326 -5.66895,-15.39018 -11.50546,-20.70984 -5.16118,-4.70413 -12.31067,-7.15795 -19.17578,-8.43734 -10.22925,-1.90633 -107.0739,10.72214 -160.3095,18.40875 -39.81382,5.74866 -118.88981,20.70984 -118.88981,20.70984 0,0 -58.340491,13.5092 -67.49874,16.10765 -10.230623,2.90271 -28.380151,-14.57359 -28.380151,-14.57359 z"
     id="path5125"
     inkscape:connector-curvature="0"
     sodipodi:nodetypes="cssssssssscsc" />
  <path
     style="fill:#000000;stroke:none;stroke-width:1px;stroke-linecap:butt;stroke-linejoin:miter;stroke-opacity:1;fill-opacity:1"
     d="m 244.68292,199.81835 c 0,0 5.17055,22.07827 1.53406,40.65265 -4.39926,22.47042 -13.51303,54.93293 -27.61312,79.0042 -10.34552,17.66158 -23.68655,34.57142 -40.65265,46.02186 -14.61223,9.86181 -52.53289,8.78979 -49.85702,17.64172 0,0 22.37722,6.02892 33.74937,5.36922 15.11145,-0.87662 31.36499,-3.52841 43.72077,-12.2725 25.76602,-18.2344 46.85553,-61.946 54.45921,-77.47014 5.96909,-12.18685 23.07709,-50.97174 22.2439,-63.66358 -0.51577,-7.85663 -37.58452,-35.28343 -37.58452,-35.28343 z"
     id="path5127"
     inkscape:connector-curvature="0"
     sodipodi:nodetypes="cssssssssc" />
  <path
     style="fill:#000000;stroke:none;stroke-width:1px;stroke-linecap:butt;stroke-linejoin:miter;stroke-opacity:1;fill-opacity:1"
     d="m 269.22791,288.79395 c 0,0 30.27896,46.16446 46.7889,68.26577 12.61787,16.89113 22.54563,37.0964 39.88561,49.08999 5.31966,3.67947 12.71961,9.21374 18.40875,6.13625 4.41825,-2.39001 3.83516,-18.40875 3.83516,-18.40875 0,0 -7.59911,-31.15126 -16.87469,-43.72077 -10.05303,-13.62304 -25.85682,-21.96969 -39.88562,-31.44827 -16.60721,-11.22068 -52.15811,-29.91422 -52.15811,-29.91422 z"
     id="path5129"
     inkscape:connector-curvature="0"
     sodipodi:nodetypes="cssscssc" />
</svg>
