<?xml version="1.0" encoding="UTF-8" standalone="no"?>
<!-- Created with Inkscape (http://www.inkscape.org/) -->

<svg
   xmlns:dc="http://purl.org/dc/elements/1.1/"
   xmlns:cc="http://creativecommons.org/ns#"
   xmlns:rdf="http://www.w3.org/1999/02/22-rdf-syntax-ns#"
   xmlns:svg="http://www.w3.org/2000/svg"
   xmlns="http://www.w3.org/2000/svg"
   xmlns:sodipodi="http://sodipodi.sourceforge.net/DTD/sodipodi-0.dtd"
   xmlns:inkscape="http://www.inkscape.org/namespaces/inkscape"
   version="1.1"
   id="svg10"
   width="512"
   height="512"
   viewBox="0 0 512 512"
   sodipodi:docname="U+79CA.svg"
   inkscape:version="0.92.4 (5da689c313, 2019-01-14)">
  <metadata
     id="metadata16">
    <rdf:RDF>
      <cc:Work
         rdf:about="">
        <dc:format>image/svg+xml</dc:format>
        <dc:type
           rdf:resource="http://purl.org/dc/dcmitype/StillImage" />
        <dc:title></dc:title>
      </cc:Work>
    </rdf:RDF>
  </metadata>
  <defs
     id="defs14" />
  <sodipodi:namedview
     pagecolor="#ffffff"
     bordercolor="#666666"
     borderopacity="1"
     objecttolerance="10"
     gridtolerance="10"
     guidetolerance="10"
     inkscape:pageopacity="0"
     inkscape:pageshadow="2"
     inkscape:window-width="1920"
     inkscape:window-height="1017"
     id="namedview12"
     showgrid="false"
     inkscape:zoom="1.6523438"
     inkscape:cx="157.65485"
     inkscape:cy="231.79196"
     inkscape:window-x="-8"
     inkscape:window-y="-8"
     inkscape:window-maximized="1"
     inkscape:current-layer="svg10" />
  <path
     style="fill:#000000;stroke:none;stroke-width:1px;stroke-linecap:butt;stroke-linejoin:miter;stroke-opacity:1;fill-opacity:1"
     d="m 211.82033,25.41844 c 0,0 11.43465,11.879417 12.70922,19.971631 1.31354,8.339674 -10.89361,44.179669 -10.89361,44.179669 0,0 11.48251,-4.784528 14.52482,-7.867612 8.42815,-8.541097 16.1079,-20.078567 16.34042,-32.07565 0.16791,-8.663531 -3.66019,-18.831824 -10.89361,-23.602837 -6.06479,-4.000208 -22.84807,-7.792551 -21.78724,-0.605201 z"
     id="path20"
     inkscape:connector-curvature="0"
     sodipodi:nodetypes="sscssss" />
  <path
     style="fill:#000000;stroke:none;stroke-width:1px;stroke-linecap:butt;stroke-linejoin:miter;stroke-opacity:1;fill-opacity:1"
     d="m 246.92199,57.49409 c 0,0 -1.96929,14.342978 3.026,17.550827 10.02649,6.438761 22.73628,19.776858 33.28605,16.340425 26.14792,-8.517301 62.91929,-14.207878 75.65012,-15.130023 5.83499,-0.422651 20.35136,-6.942449 19.36643,-12.70922 C 376.30637,52.162676 358.8277,49.371231 347.38534,47.810875 321.27774,44.250669 296.25817,64.295965 269.91962,63.546099 261.99596,63.32051 246.92199,57.49409 246.92199,57.49409 Z"
     id="path22"
     inkscape:connector-curvature="0"
     sodipodi:nodetypes="cssssssc" />
  <path
     style="fill:#000000;stroke:none;stroke-width:1px;stroke-linecap:butt;stroke-linejoin:miter;stroke-opacity:1;fill-opacity:1"
     d="m 276.57683,95.016548 c -6.75661,5.543962 6.23461,16.364712 8.47282,24.813242 3.57661,13.50059 7.42212,27.19445 7.86761,41.15366 1.08306,33.93756 -11.68449,67.12919 -12.70922,101.06856 -0.6589,21.823 3.74251,43.53434 4.2364,65.3617 0.7029,31.06493 -0.6027,53.42997 -1.8156,81.09693 -0.39691,9.05361 -5.22633,31.93672 -7.86761,38.12766 -5.07964,1.4957 -12.10402,-12.10402 -12.10402,-12.10402 0,0 -1.4993,16.09797 0,22.99763 2.68374,12.35035 7.95455,24.84974 15.73522,34.49646 10.19433,-8.57048 10.90925,-25.7052 13.31443,-39.33806 9.18539,-52.06402 1.62593,-105.73262 3.6312,-158.56265 1.01144,-26.64707 0.75307,-53.44876 4.23641,-79.88653 3.55585,-26.98809 10.70979,-50.39317 16.94562,-79.88652 1.64398,-7.77548 -2.71257,-17.97002 -9.68321,-21.78723 -11.42215,-6.25492 -18.21969,-15.26412 -30.26005,-17.550832 z"
     id="path24"
     inkscape:connector-curvature="0"
     sodipodi:nodetypes="csssssccscsssssc" />
  <path
     style="fill:#000000;stroke:none;stroke-width:1px;stroke-linecap:butt;stroke-linejoin:miter;stroke-opacity:1;fill-opacity:1"
     d="m 156.74704,160.98345 c 0,0 -0.61462,9.64581 2.42081,12.70922 4.3441,4.38414 12.00006,4.07392 18.15603,3.63121 13.23737,-0.95197 24.52822,-10.61554 37.52246,-13.31442 25.93589,-5.38684 52.95573,-2.50542 79.28132,-5.44681 23.53471,-2.62956 46.52414,-11.20039 70.20331,-10.89362 6.76578,0.0876 13.27955,4.63103 19.97163,3.63121 6.96033,-1.0399 18.53624,-2.64923 18.76123,-9.68322 0.30085,-9.40558 -15.22772,-11.71247 -24.20804,-14.52482 -2.89412,-0.90635 -6.04888,-0.75264 -9.07801,-0.6052 -50.64907,2.46533 -100.01439,16.82224 -150.08984,24.81324 -20.96191,3.34508 -62.9409,9.68321 -62.9409,9.68321 z"
     id="path834"
     inkscape:connector-curvature="0"
     sodipodi:nodetypes="cssssssssssc" />
  <path
     style="fill:#000000;stroke:none;stroke-width:1px;stroke-linecap:butt;stroke-linejoin:miter;stroke-opacity:1;fill-opacity:1"
     d="m 208.79433,197.90071 c 0,0 18.7928,22.05091 30.86524,29.65485 7.29214,4.59302 17.88138,14.92988 24.20804,9.07801 8.01499,-7.41349 -1.42638,-23.68248 -9.07801,-31.47045 -5.76901,-5.87181 -15.46273,-6.0384 -23.60284,-7.26241 -7.38116,-1.10989 -22.39243,0 -22.39243,0 z"
     id="path836"
     inkscape:connector-curvature="0"
     sodipodi:nodetypes="cssssc" />
  <path
     style="fill:#000000;fill-opacity:1;stroke:none;stroke-width:1px;stroke-linecap:butt;stroke-linejoin:miter;stroke-opacity:1"
     d="m 53.862884,274.76123 c -1.804986,6.09696 20.433265,12.75003 30.865248,18.76123 8.760516,5.04805 16.540688,15.20214 26.628838,14.52482 15.98248,-1.07307 23.89761,-22.40238 38.73286,-28.44444 14.71714,-5.99395 31.46115,-4.50514 47.20568,-6.65721 27.42007,-3.74796 54.71463,-8.76045 82.30733,-10.89362 26.55647,-2.05306 53.2553,-2.30474 79.88652,-1.8156 16.97276,0.31174 34.1621,-0.15573 50.83688,3.026 15.22729,2.90553 37.67217,14.88147 44.17967,14.52482 5.41996,-0.29705 10.78105,-6.67708 10.89362,-12.10401 0.15748,-7.59224 -8.05779,-13.57034 -14.52483,-17.55083 -13.91996,-8.56779 -31.52088,-9.54883 -47.81087,-10.89362 -44.1074,-3.6412 -88.66321,2.06806 -132.53901,7.86761 -57.38297,7.58494 -123.23612,17.99411 -171.271862,30.86525 -15.106344,4.04774 -45.390074,-1.2104 -45.390074,-1.2104 z"
     id="path838"
     inkscape:connector-curvature="0"
     sodipodi:nodetypes="sssssssssssssss" />
</svg>
