<?xml version="1.0" encoding="UTF-8" standalone="no"?>
<!-- Created with Inkscape (http://www.inkscape.org/) -->

<svg
   xmlns:dc="http://purl.org/dc/elements/1.1/"
   xmlns:cc="http://creativecommons.org/ns#"
   xmlns:rdf="http://www.w3.org/1999/02/22-rdf-syntax-ns#"
   xmlns:svg="http://www.w3.org/2000/svg"
   xmlns="http://www.w3.org/2000/svg"
   xmlns:sodipodi="http://sodipodi.sourceforge.net/DTD/sodipodi-0.dtd"
   xmlns:inkscape="http://www.inkscape.org/namespaces/inkscape"
   version="1.1"
   id="svg5696"
   width="540"
   height="512"
   viewBox="0 0 540 512"
   sodipodi:docname="U+7B11.svg"
   inkscape:version="0.92.4 (5da689c313, 2019-01-14)">
  <metadata
     id="metadata5702">
    <rdf:RDF>
      <cc:Work
         rdf:about="">
        <dc:format>image/svg+xml</dc:format>
        <dc:type
           rdf:resource="http://purl.org/dc/dcmitype/StillImage" />
        <dc:title></dc:title>
      </cc:Work>
    </rdf:RDF>
  </metadata>
  <defs
     id="defs5700" />
  <sodipodi:namedview
     pagecolor="#ffffff"
     bordercolor="#666666"
     borderopacity="1"
     objecttolerance="10"
     gridtolerance="10"
     guidetolerance="10"
     inkscape:pageopacity="0"
     inkscape:pageshadow="2"
     inkscape:window-width="1366"
     inkscape:window-height="705"
     id="namedview5698"
     showgrid="false"
     inkscape:zoom="0.921875"
     inkscape:cx="268.44697"
     inkscape:cy="252.90996"
     inkscape:window-x="-8"
     inkscape:window-y="-8"
     inkscape:window-maximized="1"
     inkscape:current-layer="svg5696" />
  <path
     style="fill:#000000;stroke:none;stroke-width:1px;stroke-linecap:butt;stroke-linejoin:miter;stroke-opacity:1;fill-opacity:1"
     d="m 23.864407,178.98305 -2.169492,24.94915 c 0,0 12.530214,-3.19097 17.355932,0 15.405612,10.18684 18.828512,32.73782 21.694916,50.98305 0.619841,3.94541 -2.345148,8.1425 -1.084746,11.93221 1.535212,4.61599 4.95818,11.60949 9.762712,10.84746 3.517207,-0.55785 3.90057,-6.22864 4.338983,-9.76272 C 76.111859,248.99555 69.198917,229.88533 64,211.52542 62.40845,205.90488 61.474711,199.52715 57.491525,195.25424 49.000643,186.14576 23.864407,178.98305 23.864407,178.98305 Z"
     id="path6249"
     inkscape:connector-curvature="0"
     sodipodi:nodetypes="ccsssssssc" />
  <path
     style="fill:#000000;stroke:none;stroke-width:1px;stroke-linecap:butt;stroke-linejoin:miter;stroke-opacity:1;fill-opacity:1"
     d="m 62.915254,165.9661 c 0,0 5.534121,20.25994 14.101695,22.77966 8.068477,2.37294 15.147894,-7.31372 22.779661,-10.84746 7.19613,-3.33202 14.04917,-11.86728 21.69492,-9.76271 4.2554,1.17134 6.85561,6.49586 7.59322,10.84746 2.44862,14.44582 -13.08484,27.69862 -11.93221,42.30509 0.40727,5.16102 1.41184,13.1927 6.50848,14.10169 5.0341,0.89783 10.84745,-10.84746 10.84745,-10.84746 0,0 2.95061,-17.12544 6.50848,-24.94915 3.98556,-8.76419 16.27119,-14.23655 16.27119,-23.86441 0,-9.62786 -6.1674,-13.98658 -16.27119,-23.8644 -25.38795,-2.03454 -40.5601,14.94248 -61.830509,16.27118 -5.461083,0.34114 -16.271187,-2.16949 -16.271187,-2.16949 z"
     id="path6251"
     inkscape:connector-curvature="0"
     sodipodi:nodetypes="csssssscsscsc" />
  <path
     style="fill:#000000;stroke:none;stroke-width:1px;stroke-linecap:butt;stroke-linejoin:miter;stroke-opacity:1;fill-opacity:1"
     d="m 65.084746,240.81356 c -2.065589,2.96774 -2.448307,8.18664 0,10.84746 2.948151,3.20405 8.68027,1.47298 13.016949,1.08474 20.878897,-4.03866 33.706935,-5.27237 60.745765,-16.27118 1.95493,-3.75364 -1.5231,-8.77272 -4.33899,-11.93221 -2.68974,-3.01794 -6.81084,-5.20363 -10.84745,-5.42373 -17.53648,10.79859 -44.51215,11.11373 -58.576274,21.69492 z"
     id="path6253"
     inkscape:connector-curvature="0"
     sodipodi:nodetypes="csccscc" />
  <path
     style="fill:#000000;fill-opacity:1;stroke:none;stroke-width:1px;stroke-linecap:butt;stroke-linejoin:miter;stroke-opacity:1"
     d="m 223.45763,64 c -1.06088,-0.795659 4.29118,22.827388 13.01695,45.55932 -14.84126,36.97981 -37.96611,105.22034 -37.96611,105.22034 0,0 32.71989,-42.10822 44.47458,-66.16949 3.16241,-6.47329 4.12168,-14.16406 7.59322,-20.61017 4.0463,-7.51335 14.33298,-12.11931 15.18644,-20.61017 1.11635,-11.106322 -3.96679,-25.695234 -14.10169,-30.372881 z"
     id="path6259"
     inkscape:connector-curvature="0"
     sodipodi:nodetypes="cccsassc" />
  <path
     style="fill:#000000;stroke:none;stroke-width:1px;stroke-linecap:butt;stroke-linejoin:miter;stroke-opacity:1;fill-opacity:1"
     d="m 228.88136,147.52542 c 0,0 16.74612,14.60021 27.11864,17.35594 13.99583,3.71836 29.28138,1.0956 43.38983,-2.1695 13.41409,-3.10441 37.9661,-16.27118 37.9661,-16.27118 1.23841,-5.75437 -1.83111,-18.55783 -7.59322,-17.35593 -25.21768,5.26005 -40.27858,17.89643 -61.83051,19.52542 -11.6777,0.88265 -39.05084,-1.08475 -39.05084,-1.08475 z"
     id="path6261"
     inkscape:connector-curvature="0"
     sodipodi:nodetypes="csssssc" />
  <path
     style="fill:#000000;stroke:none;stroke-width:1px;stroke-linecap:butt;stroke-linejoin:miter;stroke-opacity:1;fill-opacity:1"
     d="m 373.15254,78.101695 c 0,0 12.14247,13.306908 13.01695,21.694915 1.30393,12.50724 -32.54237,69.42373 -32.54237,69.42373 0,0 22.25377,-13.67474 31.45762,-22.77966 8.63719,-8.54436 18.58017,-21.78329 21.69492,-29.28814 3.12706,-7.53452 8.99947,-16.53218 5.42373,-23.864404 -2.97779,-6.106105 -18.44067,-8.677967 -18.44067,-8.677967 z"
     id="path6263"
     inkscape:connector-curvature="0"
     sodipodi:nodetypes="cscssscc" />
  <path
     style="fill:#000000;fill-opacity:1;stroke:none;stroke-width:1px;stroke-linecap:butt;stroke-linejoin:miter;stroke-opacity:1"
     d="m 400.27119,128 c 0,0 8.71051,18.37482 17.35593,21.69492 22.91843,8.80137 72.67797,-11.93221 72.67797,-11.93221 0,0 -9.70045,-14.20235 -17.35594,-16.27118 -17.18923,-4.64525 -34.26423,12.2175 -52.06779,11.9322 C 413.77831,133.3099 400.27119,128 400.27119,128 Z"
     id="path6265"
     inkscape:connector-curvature="0"
     sodipodi:nodetypes="cscssc" />
  <path
     style="fill:#000000;stroke:none;stroke-width:1px;stroke-linecap:butt;stroke-linejoin:miter;stroke-opacity:1;fill-opacity:1"
     d="m 246.23729,176.81356 c 0,0 27.99492,29.75535 27.11864,54.23729 5.46021,2.07597 12.90389,-1.73513 16.27119,-6.50848 5.4232,-7.68771 5.15164,-19.71974 1.08474,-28.20339 -6.03341,-12.58582 -19.72306,-23.73173 -33.62711,-24.94915 -4.0272,-0.35262 -10.84746,5.42373 -10.84746,5.42373 z"
     id="path6267"
     inkscape:connector-curvature="0"
     sodipodi:nodetypes="ccsssc" />
  <path
     style="fill:#000000;stroke:none;stroke-width:1px;stroke-linecap:butt;stroke-linejoin:miter;stroke-opacity:1;fill-opacity:1"
     d="m 403.52542,159.45763 c 0,0 -1.02259,15.1078 -4.33898,21.69491 -4.60476,9.14609 -20.61017,22.77966 -20.61017,22.77966 0,0 48.36237,2.60653 53.15254,-15.18644 3.52333,-13.08732 -28.20339,-29.28813 -28.20339,-29.28813 z"
     id="path6269"
     inkscape:connector-curvature="0"
     sodipodi:nodetypes="cscsc" />
  <path
     style="fill:#000000;stroke:none;stroke-width:1px;stroke-linecap:butt;stroke-linejoin:miter;stroke-opacity:1;fill-opacity:1"
     d="m 158.37288,284.20339 c 0,0 15.36467,31.36578 30.37288,35.79661 49.61147,-15.79846 83.0935,-28.32433 125.83051,-37.9661 28.18427,-6.35857 56.91967,-15.61881 85.69492,-13.01695 12.18544,1.10181 24.66955,5.75282 34.71186,11.9322 7.00725,0.4336 19.3133,2.56085 20.61017,-4.33898 -4.52824,-16.65436 -35.02924,-25.70569 -56.40678,-36.88136 -9.89123,10.65538 -21.18663,14.18927 -33.62712,18.44068 -32.83522,11.2211 -108.64354,24.55829 -162.71186,36.88136 -17.28531,3.93961 -44.47458,-10.84746 -44.47458,-10.84746 z"
     id="path6271"
     inkscape:connector-curvature="0"
     sodipodi:nodetypes="ccsscccssc" />
  <path
     style="fill:#000000;stroke:none;stroke-width:1px;stroke-linecap:butt;stroke-linejoin:miter;stroke-opacity:1;fill-opacity:1"
     d="m 317.83051,175.72881 c 0,0 12.22696,25.7869 9.76271,37.96611 -9.61504,47.52104 -11.28548,100.92522 -33.62712,145.35593 -8.52763,16.95886 -20.38979,33.99026 -36.88135,43.38983 -11.15526,6.35808 -37.96611,6.50847 -37.96611,6.50847 l -8.67796,15.18644 c 0,0 28.16871,6.5248 41.22034,2.16949 21.91375,-7.3126 40.96526,-24.84916 53.15254,-44.47457 24.33573,-39.18828 22.48235,-89.4891 32.54237,-134.50848 3.13935,-14.04883 12.23898,-28.35716 8.67797,-42.30508 -3.0464,-11.93229 -28.20339,-29.28814 -28.20339,-29.28814 z"
     id="path6275"
     inkscape:connector-curvature="0"
     sodipodi:nodetypes="csssccssssc" />
  <path
     style="fill:#000000;fill-opacity:1;stroke:none;stroke-width:1px;stroke-linecap:butt;stroke-linejoin:miter;stroke-opacity:1"
     d="m 282.0339,282.0339 c 0,0 121.25825,153.94002 135.59322,164.88135 16.72253,-4.58559 110.64407,-27.11864 110.64407,-27.11864 0,0 -42.46529,-7.52739 -58.57627,-15.18644 C 402.2164,372.53136 282.0339,282.0339 282.0339,282.0339 Z"
     id="path6277"
     inkscape:connector-curvature="0"
     sodipodi:nodetypes="cccsc" />
  <path
     style="fill:#000000;stroke:none;stroke-width:1px;stroke-linecap:butt;stroke-linejoin:miter;stroke-opacity:1;fill-opacity:1"
     d="m 434.98305,216.94916 c 0,0 25.12382,32.54 43.38983,33.62711 6.31393,0.37578 13.15482,-4.25861 16.27119,-9.76271 2.67227,-4.71973 3.58489,-12.20113 0,-16.27119 -13.25062,-15.04395 -59.66102,-7.59321 -59.66102,-7.59321 z"
     id="path6279"
     inkscape:connector-curvature="0"
     sodipodi:nodetypes="csssc" />
</svg>
