<?xml version="1.0" encoding="UTF-8" standalone="no"?>
<!-- Created with Inkscape (http://www.inkscape.org/) -->

<svg
   xmlns:dc="http://purl.org/dc/elements/1.1/"
   xmlns:cc="http://creativecommons.org/ns#"
   xmlns:rdf="http://www.w3.org/1999/02/22-rdf-syntax-ns#"
   xmlns:svg="http://www.w3.org/2000/svg"
   xmlns="http://www.w3.org/2000/svg"
   xmlns:sodipodi="http://sodipodi.sourceforge.net/DTD/sodipodi-0.dtd"
   xmlns:inkscape="http://www.inkscape.org/namespaces/inkscape"
   version="1.1"
   id="svg847"
   width="512"
   height="512"
   viewBox="0 0 512 512"
   sodipodi:docname="U+8000.svg"
   inkscape:version="0.92.4 (5da689c313, 2019-01-14)">
  <metadata
     id="metadata853">
    <rdf:RDF>
      <cc:Work
         rdf:about="">
        <dc:format>image/svg+xml</dc:format>
        <dc:type
           rdf:resource="http://purl.org/dc/dcmitype/StillImage" />
        <dc:title></dc:title>
      </cc:Work>
    </rdf:RDF>
  </metadata>
  <defs
     id="defs851" />
  <sodipodi:namedview
     pagecolor="#ffffff"
     bordercolor="#666666"
     borderopacity="1"
     objecttolerance="10"
     gridtolerance="10"
     guidetolerance="10"
     inkscape:pageopacity="0"
     inkscape:pageshadow="2"
     inkscape:window-width="1920"
     inkscape:window-height="1017"
     id="namedview849"
     showgrid="false"
     inkscape:zoom="1.3037281"
     inkscape:cx="264.2996"
     inkscape:cy="250.32015"
     inkscape:window-x="-8"
     inkscape:window-y="-8"
     inkscape:window-maximized="1"
     inkscape:current-layer="svg847" />
  <path
     style="fill:#000000;stroke:none;stroke-width:1px;stroke-linecap:butt;stroke-linejoin:miter;stroke-opacity:1;fill-opacity:1"
     d="m 72.867953,133.08664 c 2.871803,7.31012 15.477418,17.52088 16.107653,28.38015 2.089108,35.99643 2.377735,68.49871 2.301093,104.31624 -0.01369,6.39702 -0.19856,15.92015 0.767031,22.24389 1.147446,7.51473 5.234952,25.00733 11.50547,20.70984 0,0 -4.6e-4,-43.68115 0.76703,-65.96467 0.94168,-27.34123 1.40572,-55.00799 0,-82.07233 -0.50045,-9.63522 -7.378755,-19.09553 -15.340624,-24.54499 -4.510433,-3.08714 -12.925663,-7.51216 -16.107653,-3.06813 z"
     id="path1400"
     inkscape:connector-curvature="0"
     sodipodi:nodetypes="csssssssc" />
  <path
     style="fill:#000000;stroke:none;stroke-width:1px;stroke-linecap:butt;stroke-linejoin:miter;stroke-opacity:1;fill-opacity:1"
     d="m 106.61732,126.9504 c -10.99514,3.23058 14.39444,21.06129 21.47687,26.84608 8.1588,-4.47775 17.73782,-5.75832 26.84609,-7.67031 5.55586,-1.16627 17.47597,-7.94611 16.87468,-2.30109 -3.47923,32.66336 -5.20031,63.88181 -6.90328,95.87888 -1.97152,37.04278 -0.58261,76.50906 -3.83515,111.21951 -0.49118,5.24175 -14.92565,2.52591 -13.80656,7.67031 3.13201,14.39773 6.40032,34.30787 14.57359,46.7889 1.82629,2.78885 8.67869,3.8398 9.9714,0.76703 6.61528,-15.72454 6.35264,-34.65351 6.13625,-52.15811 -0.53289,-43.10745 -1.12933,-91.27455 3.83516,-136.53154 2.35659,-21.48303 2.8812,-44.1988 12.27249,-63.66358 4.09726,-8.49215 18.7706,-12.05491 18.40875,-21.47687 -0.24977,-6.50368 -8.52661,-10.00099 -13.80656,-13.80656 -5.10176,-3.67714 -10.66706,-9.4447 -16.87468,-8.43734 -5.71061,0.9267 -6.95194,10.0006 -12.2725,12.2725 -10.81888,4.61971 -23.55701,-0.17157 -35.28343,0.76703 -9.2631,0.74143 -16.50437,0.57119 -27.61312,3.83516 z"
     id="path1402"
     inkscape:connector-curvature="0"
     sodipodi:nodetypes="scssssssssssssssss" />
  <path
     style="fill:#000000;stroke:none;stroke-width:1px;stroke-linecap:butt;stroke-linejoin:miter;stroke-opacity:1;fill-opacity:1"
     d="m 101.2481,226.66444 c -4.149824,2.67624 1.34228,10.94876 5.36922,13.80656 6.0503,4.29372 15.21234,3.13332 22.2439,0.76703 8.43968,-2.84016 12.33035,-9.26121 20.70984,-16.87469 1.92981,-1.7534 0.21413,-5.73579 -1.53406,-7.67031 -2.33163,-2.58014 -6.74028,-4.35397 -9.9714,-3.06812 -12.24958,4.87482 -26.7907,6.57321 -36.8175,13.03953 z"
     id="path1404"
     inkscape:connector-curvature="0"
     sodipodi:nodetypes="sssssss" />
  <path
     style="fill:#000000;fill-opacity:1;stroke:none;stroke-width:1px;stroke-linecap:butt;stroke-linejoin:miter;stroke-opacity:1"
     d="m 56.7603,307.2027 c -3.473216,2.06868 -3.418528,9.92146 -2.301093,13.80656 1.556406,5.41132 7.498225,9.73905 13.039529,10.73843 15.437109,2.78409 29.563602,-10.51116 44.487804,-15.34062 19.31563,-6.25052 36.78027,-10.34554 58.29436,-17.64171 3.59955,-1.22073 -3.87481,-8.23457 -7.67031,-8.43734 -29.85168,-1.59482 -55.22623,10.73843 -91.276699,21.47687 -4.229998,1.26 -10.781579,-6.86076 -14.573591,-4.60219 z"
     id="path1406"
     inkscape:connector-curvature="0"
     sodipodi:nodetypes="ssssssss" />
  <path
     style="fill:#000000;stroke:none;stroke-width:1px;stroke-linecap:butt;stroke-linejoin:miter;stroke-opacity:1;fill-opacity:1"
     d="m 233.17745,91.666965 c 0,0 5.13904,20.940285 13.80656,24.544995 15.92237,6.62191 35.53968,-13.73399 49.85702,-13.80656 -1.26188,27.45622 -4.60672,62.62916 -3.06812,92.81076 0.52988,10.39416 11.24653,-17.75158 14.57359,-27.61312 5.46881,-16.20978 1.79196,-34.86005 8.43734,-50.62405 1.84742,-4.38239 11.72238,-8.06646 8.43734,-11.50547 -5.58239,-5.844033 -14.82406,-15.812906 -23.01093,-21.476866 -3.2844,-2.272263 -5.21281,7.536817 -9.20438,7.670311 -19.51869,0.652783 -59.82842,0 -59.82842,0 z"
     id="path1408"
     inkscape:connector-curvature="0"
     sodipodi:nodetypes="cscssssssc" />
  <path
     style="fill:#000000;stroke:none;stroke-width:1px;stroke-linecap:butt;stroke-linejoin:miter;stroke-opacity:1;fill-opacity:1"
     d="m 238.54667,152.26242 c -2.90962,0.17967 0.51617,6.13251 2.30109,8.43734 2.52426,3.25953 6.88872,7.6114 10.73844,6.13625 13.39964,-5.13451 29.21886,-5.05153 37.58452,-14.57359 0.70229,-6.41466 -7.71816,-7.11716 -16.10765,-10.73843 -9.15652,0.98092 -24.88898,10.14393 -34.5164,10.73843 z"
     id="path1410"
     inkscape:connector-curvature="0"
     sodipodi:nodetypes="sssccs" />
  <path
     style="fill:#000000;stroke:none;stroke-width:1px;stroke-linecap:butt;stroke-linejoin:miter;stroke-opacity:1;fill-opacity:1"
     d="m 352.06727,85.530717 c -2.03253,5.041465 6.56762,8.786533 10.73843,12.272497 4.57563,3.824316 9.37852,9.081916 15.34063,9.204376 12.81179,0.26314 22.949,-15.333968 33.74936,-18.408749 0,0 -1.52557,23.522839 -2.30109,35.283429 -0.75873,11.50602 0.46543,22.7611 -2.30109,34.5164 -0.57686,2.45116 -6.06722,0.69284 -6.90328,3.06812 4.51913,9.71974 13.03952,25.31203 13.03952,25.31203 6.97825,0.0723 9.83137,-11.43153 9.97141,-18.40875 0.3595,-17.91194 0.0442,-38.48302 6.90328,-55.99327 2.87276,-7.33376 4.46999,-10.55802 10.73844,-15.340618 8.624,-6.579803 -11.43779,-20.530697 -19.94281,-26.846087 -5.01137,-3.721183 -9.47316,8.609164 -15.34063,10.738435 -16.23258,5.890712 -36.23072,2.351816 -52.81023,2.822364 -0.63426,0.018 -0.62221,1.135582 -0.88194,1.779823 z"
     id="path1412"
     inkscape:connector-curvature="0"
     sodipodi:nodetypes="ssscssccsssssss" />
  <path
     style="fill:#000000;stroke:none;stroke-width:1px;stroke-linecap:butt;stroke-linejoin:miter;stroke-opacity:1;fill-opacity:1"
     d="m 349.76617,146.12618 c -2.70741,7.39639 8.62194,16.25622 16.10766,13.80655 11.00682,-3.60195 20.90445,-2.32957 27.61312,-10.73843 5.70477,-7.15054 -24.545,-12.2725 -24.545,-12.2725 0,0 -16.63922,2.27475 -19.17578,9.20438 z"
     id="path1414"
     inkscape:connector-curvature="0"
     sodipodi:nodetypes="ssscs" />
  <path
     style="fill:#000000;stroke:none;stroke-width:1px;stroke-linecap:butt;stroke-linejoin:miter;stroke-opacity:1;fill-opacity:1"
     d="m 227.0412,198.28429 c -2.01303,4.33152 -0.35502,11.51378 3.83516,13.80656 9.15222,5.00791 19.6847,-7.15515 29.91421,-9.20438 18.13524,-3.63295 42.08105,-1.76532 55.22624,-5.36921 4.88199,-1.33845 -5.70171,-10.23185 -10.73844,-10.73844 -17.87163,-1.7975 -33.53085,-1.68826 -52.92514,3.06812 -6.5558,1.60779 -22.46722,2.31604 -25.31203,8.43735 z"
     id="path1416"
     inkscape:connector-curvature="0"
     sodipodi:nodetypes="sssssss" />
  <path
     style="fill:#000000;stroke:none;stroke-width:1px;stroke-linecap:butt;stroke-linejoin:miter;stroke-opacity:1;fill-opacity:1"
     d="m 342.09587,191.381 c 0.97997,8.92835 5.45762,9.49906 9.9714,9.20438 11.34569,-0.74069 24.79272,-4.12258 36.05046,-3.83516 7.96042,0.20324 15.84783,3.02404 23.77796,2.3011 9.26835,-0.84494 21.58198,0.0788 26.84609,-7.67031 -4.61222,-8.31562 -17.81853,-7.88544 -28.38015,-9.20437 -11.84567,-1.47928 -25.18221,0.52018 -36.05046,2.30109 -10.86825,1.78091 -33.31603,-3.12521 -32.2153,6.90327 z"
     id="path1418"
     inkscape:connector-curvature="0"
     sodipodi:nodetypes="sssscszs" />
  <path
     style="fill:#000000;stroke:none;stroke-width:1px;stroke-linecap:butt;stroke-linejoin:miter;stroke-opacity:1;fill-opacity:1"
     d="m 312.18165,201.35241 c -3.82764,2.66789 -0.0752,9.70607 -2.30109,13.80656 -11.7414,21.63018 -36.10813,33.45692 -54.45921,49.85702 -11.89023,10.62613 -21.86358,22.63919 -36.05046,31.44828 -3.50913,2.17893 -7.55211,-5.79917 -11.50547,-4.60219 -4.75134,1.43859 -8.50314,7.30859 -8.43734,12.2725 0.0461,3.47728 8.43734,7.67031 8.43734,7.67031 12.47754,-8.54989 28.30834,-19.06705 42.95374,-29.91422 28.7827,-21.318 54.53679,-47.53789 80.53827,-62.89654 3.3603,-1.98488 0.14481,-12.3581 -3.06813,-14.5736 -4.49969,-3.10278 -11.62363,-6.1935 -16.10765,-3.06812 z"
     id="path1420"
     inkscape:connector-curvature="0"
     sodipodi:nodetypes="ssassssssss" />
  <path
     style="fill:#000000;fill-opacity:1;stroke:none;stroke-width:1px;stroke-linecap:butt;stroke-linejoin:miter;stroke-opacity:1"
     d="m 282.26744,224.36334 c 0,0 4.65883,25.53037 3.83516,38.35155 -1.63583,25.46305 -6.49878,52.07864 -8.43735,78.23718 -1.39945,18.88385 -0.43781,37.91656 -2.30109,56.7603 -0.96787,9.78836 -5.37919,19.34183 -4.60218,29.14718 0.91335,11.52601 4.54571,28.44879 10.73843,32.98234 8.57171,-4.65307 6.51174,-16.0518 7.67031,-24.545 2.1782,-15.96789 -1.73829,-32.20849 -1.53406,-48.32296 0.45435,-35.8503 1.86646,-72.13845 8.43734,-107.38435 2.90447,-15.57942 4.54968,-31.73126 9.97141,-42.95374 4.04852,-8.38007 -23.77797,-12.2725 -23.77797,-12.2725 z"
     id="path1422"
     inkscape:connector-curvature="0"
     sodipodi:nodetypes="cssssccsssc" />
  <path
     style="fill:#000000;stroke:none;stroke-width:1px;stroke-linecap:butt;stroke-linejoin:miter;stroke-opacity:1;fill-opacity:1"
     d="m 334.42555,220.52819 c 0,0 22.23236,26.81414 19.17578,39.88561 -2.24717,9.61003 26.91348,-8.57481 26.07906,-18.40874 -0.68801,-8.10847 -10.36511,-13.23168 -17.64172,-16.87469 -8.34404,-4.17741 -27.61312,-4.60218 -27.61312,-4.60218 z"
     id="path1424"
     inkscape:connector-curvature="0"
     sodipodi:nodetypes="csssc" />
  <path
     style="fill:#000000;stroke:none;stroke-width:1px;stroke-linecap:butt;stroke-linejoin:miter;stroke-opacity:1;fill-opacity:1"
     d="m 295.30697,268.85115 c -3.03067,1.70547 -7.49065,5.23434 -6.13625,8.43734 2.81648,6.66063 14.24584,3.16213 21.47687,3.06812 15.29879,-0.19889 30.10455,-5.53454 45.25483,-7.67031 18.08908,-2.55006 36.29614,-4.18159 54.45921,-6.13625 9.96617,-1.07253 21.97786,3.05472 29.91421,-3.06812 1.7296,-1.33437 3.23153,-4.1598 2.3011,-6.13625 -3.34055,-7.0961 -14.44706,-8.52064 -22.24391,-7.67031 -21.41992,2.33607 -46.27915,11.15129 -69.79982,14.57359 -18.28007,2.65978 -39.12765,-4.4571 -55.22624,4.60219 z"
     id="path1426"
     inkscape:connector-curvature="0"
     sodipodi:nodetypes="sssaasssss" />
  <path
     style="fill:#000000;stroke:none;stroke-width:1px;stroke-linecap:butt;stroke-linejoin:miter;stroke-opacity:1;fill-opacity:1"
     d="m 314.48274,312.57192 c -2.03792,4.62935 6.71047,5.41654 15.34063,8.43734 0,0 8.58388,-7.68783 14.57359,-9.20437 17.8886,-4.52925 39.53904,1.81445 57.52733,-2.3011 4.02654,-0.92124 11.3338,-0.47516 11.50546,-4.60218 0.21384,-5.14095 -8.72196,-6.11458 -13.80655,-6.90328 -17.90292,-2.77704 -35.84961,5.29579 -53.69218,8.43734 -10.51865,1.85203 -24.07695,0.19621 -31.44828,6.13625 z"
     id="path1428"
     inkscape:connector-curvature="0"
     sodipodi:nodetypes="ccsssssc" />
  <path
     style="fill:#000000;stroke:none;stroke-width:1px;stroke-linecap:butt;stroke-linejoin:miter;stroke-opacity:1;fill-opacity:1"
     d="m 301.44322,360.89488 c -4.93585,4.28071 0.37104,6.00634 10.73843,8.43734 7.35068,1.72362 18.89098,-6.89465 26.07906,-9.20437 17.17959,-5.52025 35.81771,-4.4304 53.69217,-6.90328 6.91278,-0.95636 18.38816,3.51298 20.70984,-3.06813 1.50486,-4.26573 -4.94256,-8.45549 -9.20437,-9.9714 -6.81345,-2.42352 -14.33616,1.92495 -21.47687,3.06812 -15.89711,2.54499 -31.85815,4.86318 -47.55593,8.43734 -11.12936,2.534 -26.1246,3.25688 -32.98233,9.20438 z"
     id="path1430"
     inkscape:connector-curvature="0"
     sodipodi:nodetypes="sssssssss" />
  <path
     style="fill:#000000;stroke:none;stroke-width:1px;stroke-linecap:butt;stroke-linejoin:miter;stroke-opacity:1;fill-opacity:1"
     d="m 360.50461,259.64677 c -0.34354,13.95234 -1.75306,36.80967 -2.30109,55.22624 -0.42595,14.31386 -1.87852,28.67674 -0.76703,42.95374 0.80586,10.35118 -4.95759,29.60723 5.36921,30.68125 16.43372,1.70916 15.33339,-24.20234 16.87469,-40.65265 1.76034,-18.78826 1.88505,-47.20082 1.53406,-69.79983 -0.12461,-8.02338 -1.90501,-18.9108 -9.20437,-22.2439 -3.67736,-1.67919 -9.07395,0.60554 -11.50547,3.83515 z"
     id="path1432"
     inkscape:connector-curvature="0"
     sodipodi:nodetypes="cssssssc" />
  <path
     style="fill:#000000;stroke:none;stroke-width:1px;stroke-linecap:butt;stroke-linejoin:miter;stroke-opacity:1;fill-opacity:1"
     d="m 279.19932,406.14971 c 3.38747,5.04574 10.80472,2.76798 16.87468,3.06812 12.52331,0.61925 23.6615,-8.80704 36.05046,-10.73844 25.52019,-3.9785 51.64337,2.00759 77.47014,2.3011 12.02692,0.13668 29.6165,11.69623 36.05046,1.53406 2.93655,-4.63816 -3.31411,-11.23302 -7.67031,-14.57359 -6.4479,-4.94459 -15.66817,-4.86345 -23.77796,-5.36921 -23.58875,-1.47108 -47.11826,3.94422 -70.56686,6.90328 -21.56154,2.72092 -41.71924,9.9714 -55.99327,9.9714 0,0 -9.71995,4.9928 -8.43734,6.90328 z"
     id="path1434"
     inkscape:connector-curvature="0"
     sodipodi:nodetypes="ssssssssss" />
</svg>
