<?xml version="1.0" encoding="UTF-8" standalone="no"?>
<!-- Created with Inkscape (http://www.inkscape.org/) -->

<svg
   xmlns:dc="http://purl.org/dc/elements/1.1/"
   xmlns:cc="http://creativecommons.org/ns#"
   xmlns:rdf="http://www.w3.org/1999/02/22-rdf-syntax-ns#"
   xmlns:svg="http://www.w3.org/2000/svg"
   xmlns="http://www.w3.org/2000/svg"
   xmlns:sodipodi="http://sodipodi.sourceforge.net/DTD/sodipodi-0.dtd"
   xmlns:inkscape="http://www.inkscape.org/namespaces/inkscape"
   version="1.1"
   id="svg1436"
   width="534"
   height="512"
   viewBox="0 0 534 512"
   sodipodi:docname="U+9870.svg"
   inkscape:version="0.92.4 (5da689c313, 2019-01-14)">
  <metadata
     id="metadata1442">
    <rdf:RDF>
      <cc:Work
         rdf:about="">
        <dc:format>image/svg+xml</dc:format>
        <dc:type
           rdf:resource="http://purl.org/dc/dcmitype/StillImage" />
        <dc:title />
      </cc:Work>
    </rdf:RDF>
  </metadata>
  <defs
     id="defs1440" />
  <sodipodi:namedview
     pagecolor="#ffffff"
     bordercolor="#666666"
     borderopacity="1"
     objecttolerance="10"
     gridtolerance="10"
     guidetolerance="10"
     inkscape:pageopacity="0"
     inkscape:pageshadow="2"
     inkscape:window-width="1920"
     inkscape:window-height="1017"
     id="namedview1438"
     showgrid="false"
     inkscape:zoom="1.3037281"
     inkscape:cx="119.71753"
     inkscape:cy="257.30987"
     inkscape:window-x="-8"
     inkscape:window-y="-8"
     inkscape:window-maximized="1"
     inkscape:current-layer="svg1436" />
  <path
     style="fill:#000000;stroke:none;stroke-width:1px;stroke-linecap:butt;stroke-linejoin:miter;stroke-opacity:1;fill-opacity:1"
     d="m 164.91168,79.394468 c -0.53644,19.410861 0.47703,49.158712 6.13625,72.867952 2.68963,11.26819 6.23007,27.30713 13.03953,32.21531 13.10624,-2.29137 0.31336,-26.6367 1.53406,-39.88562 0.97201,-10.54973 7.214,-21.18085 4.60219,-31.44827 -3.46673,-13.628219 -13.70399,-27.247077 -25.31203,-33.749372 z"
     id="path1989"
     inkscape:connector-curvature="0"
     sodipodi:nodetypes="cscssc" />
  <path
     style="fill:#000000;stroke:none;stroke-width:1px;stroke-linecap:butt;stroke-linejoin:miter;stroke-opacity:1;fill-opacity:1"
     d="m 192.5248,34.906665 c -2.33228,3.595783 0.74471,9.302933 3.83516,12.272497 4.96406,4.769892 15.30347,0.282932 19.94281,5.369218 14.16329,15.527758 7.12289,41.880798 6.90327,62.89655 -0.19597,18.7525 -3.56437,34.17819 -6.90327,54.45921 -0.68499,4.16072 -1.13329,11.91342 3.06812,12.27249 9.46691,0.80908 8.76326,-16.98195 11.50547,-26.07905 7.41224,-24.58962 5.34691,-51.43272 13.03953,-75.936081 2.70651,-8.62107 6.50006,-15.143945 11.50546,-24.544995 -1.9269,-6.242928 -10.97734,-7.159205 -16.87468,-9.971404 -10.58829,-5.049119 -21.33554,-7.038231 -32.98234,-12.272497 -4.34525,-0.521987 -10.65797,-2.137696 -13.03953,1.534062 z"
     id="path1991"
     inkscape:connector-curvature="0"
     sodipodi:nodetypes="sssssssscscs" />
  <path
     style="fill:#000000;stroke:none;stroke-width:1px;stroke-linecap:butt;stroke-linejoin:miter;stroke-opacity:1;fill-opacity:1"
     d="m 230.87636,100.87134 c 0,0 28.02494,14.72725 41.41968,14.57359 12.12433,-0.13909 17.40406,-8.65446 28.38015,-13.80656 4.86591,-2.284026 13.09563,-1.735157 14.57359,-6.90328 1.17002,-4.091303 -2.8264,-9.519103 -6.90328,-10.738436 -14.47521,3.340991 -28.11077,13.286158 -42.95374,16.107656 -11.81611,2.24612 -34.5164,0.76703 -34.5164,0.76703 z"
     id="path1993"
     inkscape:connector-curvature="0"
     sodipodi:nodetypes="cssscsc" />
  <path
     style="fill:#000000;fill-opacity:1;stroke:none;stroke-width:1px;stroke-linecap:butt;stroke-linejoin:miter;stroke-opacity:1"
     d="m 109.68545,181.4096 c -4.48004,4.22425 -1.95106,13.33243 1.53406,18.40875 4.98363,7.259 14.97922,11.83982 23.77796,11.50546 12.70803,-0.48292 20.92816,-15.12314 32.98234,-19.17577 25.88127,-8.70132 54.06742,-11.88238 81.30529,-9.97141 10.82687,0.7596 20.5956,8.30557 31.44828,8.43735 8.68109,0.10541 23.82582,2.41732 25.31202,-6.13625 1.99087,-11.45812 -17.53766,-19.86228 -29.14718,-19.17578 -31.63506,1.87065 -64.64791,6.73274 -96.64591,12.2725 -12.8977,2.23296 -26.03814,6.41481 -39.11859,6.90328 -10.8399,0.4048 -17.41971,-0.53842 -31.44827,-3.06813 z"
     id="path1995"
     inkscape:connector-curvature="0"
     sodipodi:nodetypes="csssssssssc" />
  <path
     style="fill:#000000;stroke:none;stroke-width:1px;stroke-linecap:butt;stroke-linejoin:miter;stroke-opacity:1;fill-opacity:1"
     d="m 177.18418,201.35241 c 0,0 14.03697,16.66444 16.87468,26.84609 -1.45596,14.80773 0.29247,30.02686 -1.53406,44.4878 -1.38328,10.95161 -4.40184,20.25823 -6.90328,31.44828 2.99791,8.59666 13.43027,21.13405 21.47687,16.87468 -2.20317,-13.85744 -4.04206,-29.65525 -3.06812,-44.4878 1.26488,-19.2634 6.33727,-35.20837 11.50546,-56.7603 -2.39962,-7.96267 -11.29421,-11.31233 -18.40874,-14.5736 -6.15369,-2.82082 -19.94281,-3.83515 -19.94281,-3.83515 z"
     id="path1997"
     inkscape:connector-curvature="0"
     sodipodi:nodetypes="ccsccscac" />
  <path
     style="fill:#000000;stroke:none;stroke-width:1px;stroke-linecap:butt;stroke-linejoin:miter;stroke-opacity:1;fill-opacity:1"
     d="m 177.18418,255.04459 c 0,0 -17.37583,17.06674 -28.38015,16.87468 -4.25466,-0.0743 -10.73843,-6.90328 -10.73843,-6.90328 0,0 -8.20499,31.35552 0.76703,42.18671 3.99846,4.82702 15.04044,4.93571 17.64171,-0.76703 10.37261,-22.73978 20.70984,-51.39108 20.70984,-51.39108 z"
     id="path1999"
     inkscape:connector-curvature="0"
     sodipodi:nodetypes="cscssc" />
  <path
     style="fill:#000000;fill-opacity:1;stroke:none;stroke-width:1px;stroke-linecap:butt;stroke-linejoin:miter;stroke-opacity:1"
     d="m 238.54667,219.76115 c 0,0 15.04306,27.84723 26.84609,35.28344 7.19093,4.53047 27.42327,12.99431 26.07905,4.60219 -1.47281,-9.19493 -9.20437,-26.07906 -9.20437,-26.07906 -12.34011,-4.25046 -43.72077,-13.80657 -43.72077,-13.80657 z"
     id="path2001"
     inkscape:connector-curvature="0"
     sodipodi:nodetypes="csssc" />
  <path
     style="fill:#000000;stroke:none;stroke-width:1px;stroke-linecap:butt;stroke-linejoin:miter;stroke-opacity:1;fill-opacity:1"
     d="m 220.90495,243.53912 c 0,0 3.72613,17.4694 2.3011,26.07906 -3.92544,23.71641 -15.74001,46.0116 -29.14719,65.96467 -16.63995,24.7642 -40.09863,44.31113 -62.12951,64.43061 -15.98083,14.59433 -32.901087,28.23179 -50.624055,40.65265 -19.354607,13.56437 -60.595456,36.81749 -60.595456,36.81749 22.351211,3.94269 45.833833,-6.39276 65.964674,-16.87468 23.318357,-12.14163 41.983347,-32.08519 59.828427,-51.39109 22.3547,-24.18468 39.90386,-52.45053 58.29436,-79.77123 12.75797,-18.95309 36.86856,-35.46201 36.05046,-58.29436 -0.40656,-11.34662 -19.94281,-27.61312 -19.94281,-27.61312 z"
     id="path2003"
     inkscape:connector-curvature="0"
     sodipodi:nodetypes="csssssssssc" />
  <path
     style="fill:#000000;stroke:none;stroke-width:1px;stroke-linecap:butt;stroke-linejoin:miter;stroke-opacity:1;fill-opacity:1"
     d="m 329.82337,94.73509 c -2.54575,10.48232 21.43205,3.353395 32.2153,3.068124 12.14512,-0.321299 23.94777,-4.305293 36.05046,-5.369218 27.77225,-2.441405 55.74187,-3.210361 83.60639,-2.301093 11.0357,0.360114 24.00091,4.956291 32.21531,2.301093 5.46711,-1.767173 -1.01603,-11.590691 -5.36922,-15.340621 -6.34544,-5.466098 -16.36558,-7.169191 -24.545,-5.369218 -14.46378,3.182917 -33.2337,4.633565 -49.85702,6.90328 -13.2918,1.814836 -26.62008,3.371386 -39.88561,5.369217 -21.53032,3.242535 -62.12653,1.251226 -64.43061,10.738436 z"
     id="path2005"
     inkscape:connector-curvature="0"
     sodipodi:nodetypes="ssssssssss" />
  <path
     style="fill:#000000;stroke:none;stroke-width:1px;stroke-linecap:butt;stroke-linejoin:miter;stroke-opacity:1;fill-opacity:1"
     d="m 362.03868,97.803214 c -0.0439,8.307856 10.45665,14.403986 6.13624,31.448276 -4.15817,16.40422 -14.09109,31.95917 -22.2439,46.78889 -4.20882,7.65572 3.08935,6.46149 6.13625,6.90328 11.02356,1.59839 21.17467,-9.14732 28.38015,-17.64171 10.38157,-12.23861 13.51557,-26.26439 18.40874,-44.4878 1.9891,-7.40791 -6.2612,-13.57835 -11.50547,-19.17578 -3.22332,-3.440386 -8.39702,-7.616854 -13.03952,-8.437343 -4.30234,-0.76037 -12.24938,0.233242 -12.27249,4.602187 z"
     id="path2007"
     inkscape:connector-curvature="0"
     sodipodi:nodetypes="sssssssss" />
  <path
     style="fill:#000000;stroke:none;stroke-width:1px;stroke-linecap:butt;stroke-linejoin:miter;stroke-opacity:1;fill-opacity:1"
     d="m 319.08493,171.4382 c 8.49712,10.30023 13.68163,14.27112 16.10766,26.84608 4.61366,23.91419 -6.09426,53.21998 -3.83516,77.47015 1.20227,12.90571 5.30382,26.31485 9.9714,37.58452 1.66607,4.02265 13.12137,5.12029 13.03953,0.76703 -0.32795,-17.44369 -0.10106,-41.98126 1.53406,-65.96467 1.10935,-16.27154 1.30297,-36.86449 4.60219,-54.45921 -3.91379,-8.52882 -5.20661,-15.87017 -11.50547,-20.70984 -8.06129,-1.0338 -36.17347,-9.12157 -29.91421,-1.53406 z"
     id="path2009"
     inkscape:connector-curvature="0"
     sodipodi:nodetypes="ssssssccs" />
  <path
     style="fill:#000000;stroke:none;stroke-width:1px;stroke-linecap:butt;stroke-linejoin:miter;stroke-opacity:1;fill-opacity:1"
     d="m 381.98148,158.39867 c 7.89046,6.01895 18.55114,5.24575 28.38015,8.43734 9.48107,-3.53473 24.95584,-9.60573 35.28343,-3.83515 9.88393,5.52268 14.95037,19.36532 14.57359,30.68124 -0.90457,27.16696 3.23777,37.43695 0.76703,62.89655 -1.11435,11.48273 0.29956,28.74354 -3.06813,44.48781 -1.89078,8.83958 -25.31201,-0.76704 -25.31201,-0.76704 0,0 18.8685,20.01145 24.54499,33.74937 4.11127,9.94986 -4.30725,28.06672 6.13625,30.68124 7.91344,1.98112 9.3716,-11.01983 9.20437,-19.17578 -0.23917,-11.66453 -1.67783,-31.01921 -2.30109,-45.25483 -1.64855,-37.65353 -2.05639,-72.45916 3.83515,-109.68544 1.68667,-10.65741 10.68626,-21.08829 7.67031,-31.44828 -2.47665,-8.50744 -10.60815,-16.1491 -19.17578,-18.40875 -10.96274,3.96978 -28.00604,7.66145 -42.18671,10.73844 -12.6939,2.75439 -48.67912,-0.97473 -38.35155,6.90328 z"
     id="path2011"
     inkscape:connector-curvature="0"
     sodipodi:nodetypes="scsssscsssssscss" />
  <path
     style="fill:#000000;fill-opacity:1;stroke:none;stroke-width:1px;stroke-linecap:butt;stroke-linejoin:miter;stroke-opacity:1"
     d="m 368.94195,211.32381 c 0,0 10.64517,13.81015 17.64172,12.2725 14.86627,-3.2672 27.60899,-4.31161 38.35155,-9.9714 1.6941,-5.54352 -5.83346,-11.84419 -11.50547,-13.03953 -7.16411,-1.50979 -14.37833,5.8773 -21.47686,7.67031 -7.94801,2.00757 -20.80312,-4.8266 -23.01094,3.06812 z"
     id="path2013"
     inkscape:connector-curvature="0"
     sodipodi:nodetypes="sscsss" />
  <path
     style="fill:#000000;stroke:none;stroke-width:1px;stroke-linecap:butt;stroke-linejoin:miter;stroke-opacity:1;fill-opacity:1"
     d="m 365.87383,265.01599 c 0,0 12.62597,9.7902 19.17577,7.67031 12.97191,-4.19845 21.77012,-6.73469 39.11859,-13.03953 4.64096,-1.68663 -3.75513,-7.72935 -7.67031,-10.73844 -3.67142,-2.82175 -6.95666,-5.46815 -11.50547,-4.60218 -14.49383,2.75922 -39.11858,20.70984 -39.11858,20.70984 z"
     id="path2015"
     inkscape:connector-curvature="0"
     sodipodi:nodetypes="cssssc" />
  <path
     style="fill:#000000;stroke:none;stroke-width:1px;stroke-linecap:butt;stroke-linejoin:miter;stroke-opacity:1;fill-opacity:1"
     d="m 282.26744,318.70817 c 1.26906,11.60268 15.19417,15.42546 26.84608,16.10765 8.81595,0.51615 19.79327,-7.14216 28.38016,-9.20437 34.93277,-8.38937 79.24435,-8.95963 107.38435,-9.20438 4.36885,-0.038 12.09873,-0.23663 12.2725,-4.60218 0.35938,-9.02878 -15.59322,-10.27505 -24.54499,-11.50547 -18.48884,-2.54129 -37.49005,6.00301 -55.99328,8.43734 -31.57993,4.15473 -94.34482,9.97141 -94.34482,9.97141 z"
     id="path2017"
     inkscape:connector-curvature="0"
     sodipodi:nodetypes="ssssssss" />
  <path
     style="fill:#000000;stroke:none;stroke-width:1px;stroke-linecap:butt;stroke-linejoin:miter;stroke-opacity:1;fill-opacity:1"
     d="m 357.43649,340.95207 c 0,0 -7.30819,20.10707 -13.80656,28.38015 -7.17862,9.13911 -26.84609,22.2439 -26.84609,22.2439 0,0 25.30013,-4.95241 38.35155,-13.80656 5.41917,-3.67639 19.14706,-8.79216 19.17578,-15.34062 0.0399,-9.10431 -16.87468,-21.47687 -16.87468,-21.47687 z"
     id="path2019"
     inkscape:connector-curvature="0"
     sodipodi:nodetypes="cscssc" />
  <path
     style="fill:#000000;stroke:none;stroke-width:1px;stroke-linecap:butt;stroke-linejoin:miter;stroke-opacity:1;fill-opacity:1"
     d="m 401.15726,338.65097 c 5.35298,19.69405 27.74382,36.45358 33.74937,53.69218 0.89414,2.56659 -5.36922,6.13625 -5.36922,6.13625 0,0 13.42216,19.48845 23.77796,23.77796 4.96051,2.05471 12.64858,4.1065 16.10765,0 4.84729,-5.75455 -1.13253,-15.22201 -3.83515,-22.2439 -5.32507,-13.83546 -13.86766,-26.55899 -23.77796,-37.58452 -6.32628,-7.03819 -13.92143,-13.1368 -22.24391,-17.64172 -5.68829,-3.07905 -20.10528,-12.37796 -18.40874,-6.13625 z"
     id="path2021"
     inkscape:connector-curvature="0"
     sodipodi:nodetypes="sscssssss" />
</svg>
