
<svg version="1.1" baseProfile="full" xmlns="http://www.w3.org/2000/svg" width="512" height="512" viewBox="0,0,512,512">

  <rect width="512" height="512" stroke="red" fill="white"></rect>

  <text x="2" y="12" font-size="12" text-anchor="start" fill="red">0</text>
  <path d="M256  64 H0 H512" stroke="lightgray" fill="white"></path>
  <text x="2" y="64" font-size="12" text-anchor="start" fill="red">64</text>
  <path d="M256 128 H0 H512" stroke="lightgray" fill="white"></path>
  <text x="2" y="128" font-size="12" text-anchor="start" fill="red">128</text>
  <path d="M256 192 H0 H512" stroke="lightgray" fill="white"></path>
  <text x="2" y="192" font-size="12" text-anchor="start" fill="red">192</text>
  <path d="M256 256 H0 H512" stroke="lightgray" fill="white"></path>
  <text x="2" y="256" font-size="12" text-anchor="start" fill="red">256</text>
  <path d="M256 320 H0 H512" stroke="lightgray" fill="white"></path>
  <text x="2" y="320" font-size="12" text-anchor="start" fill="red">320</text>
  <path d="M256 384 H0 H512" stroke="lightgray" fill="white"></path>
  <text x="2" y="384" font-size="12" text-anchor="start" fill="red">384</text>
  <path d="M256 448 H0 H512" stroke="lightgray" fill="white"></path>
  <text x="2" y="448" font-size="12" text-anchor="start" fill="red">448</text>
  <text x="2" y="512" font-size="12" text-anchor="start" fill="red">512</text>

  <path d="M64  0 V512" stroke="lightgray" fill="white"></path>
  <text x="64" y="12" font-size="12" text-anchor="start" fill="red">64</text>
  <path d="M128  0 V512" stroke="lightgray" fill="white"></path>
  <text x="128" y="12" font-size="12" text-anchor="start" fill="red">128</text>
  <path d="M195  0 V512" stroke="lightgray" fill="white"></path>
  <text x="192" y="12" font-size="12" text-anchor="start" fill="red">192</text>
  <path d="M256  0 V512" stroke="lightgray" fill="white"></path>
  <text x="256" y="12" font-size="12" text-anchor="start" fill="red">256</text>
  <path d="M320  0 V512" stroke="lightgray" fill="white"></path>
  <text x="320" y="12" font-size="12" text-anchor="start" fill="red">320</text>
  <path d="M384  0 V512" stroke="lightgray" fill="white"></path>
  <text x="384" y="12" font-size="12" text-anchor="start" fill="red">384</text>
  <path d="M448  0 V512" stroke="lightgray" fill="white"></path>
  <text x="448" y="12" font-size="12" text-anchor="start" fill="red">448</text>
  <text x="512" y="12" font-size="12" text-anchor="start" fill="red">512</text>




 
  <circle cx="150" cy="100" r="80" fill="blue" transform="translate(100,50)"></circle>
  <circle cx="150" cy="110" r="65" fill="white" transform="translate(100,50)"></circle>


  <ellipse fill="white" cx="122.5" cy="70" rx="25" ry="32" transform="translate(100,50)" stroke="black"></ellipse>
  <ellipse fill="white" cx="172.5" cy="70" rx="25" ry="32" transform="translate(100,50)" stroke="black"></ellipse>

  <circle cx="150" cy="100" r="15" fill="red" transform="translate(100,50)"></circle>
  <ellipse fill="black" cx="270" cy="120" rx="8" ry="10"></ellipse>
  <ellipse fill="black" cx="230" cy="120" rx="8" ry="10"></ellipse>
  <ellipse fill="white" cx="270" cy="120" rx="3" ry="5"></ellipse>
  <ellipse fill="white" cx="230" cy="120" rx="3" ry="5"></ellipse>


<rect x="202" y="220" rx="10" ry="10" width="95" height="15" fill="red"/>
  <circle cx="150" cy="190" r="15" fill="yellow" transform="translate(100,50)"></circle>
<path d="M200 180 C240 210,250 210,300,180" stroke="black" fill="none"/>
<path d="M200 175 L230 170" stroke="black"/>
<path d="M270 170 L300 175" stroke="black"/>
<path d="M200 165 L230 165" stroke="black"/>
<path d="M200 155 L230 160" stroke="black"/>
<path d="M270 165 L300 165" stroke="black"/>
<path d="M270 160 L300 155" stroke="black"/>
<path d="M250 165 L250 200" stroke="black"/>


</svg>
